<svg viewBox="0 0 24 24" fill="none" xmlns="http://www.w3.org/2000/svg" aria-hidden="true">
<path id="Vector" d="M8 21V19C8 16.7923 9.79234 15 12 15H18C20.2077 15 22 16.7923 22 19V21" stroke="currentColor" stroke-width="2" stroke-linecap="round" stroke-linejoin="round"/>
<path id="Vector_2" d="M8 3.12891C6.23579 3.58627 5.0038 5.17837 5.0038 7.00091C5.0038 8.82344 6.23579 10.4155 8 10.8729" stroke="currentColor" stroke-width="2" stroke-linecap="round" stroke-linejoin="round"/>
<path id="Vector_3" d="M2 21.0009V19.0009C2.00136 17.178 3.235 15.5866 5 15.1309" stroke="currentColor" stroke-width="2" stroke-linecap="round" stroke-linejoin="round"/>
<path id="Vector_4" d="M19 7C19 8.42906 18.2376 9.74957 17 10.4641C15.7624 11.1786 14.2376 11.1786 13 10.4641C11.7624 9.74957 11 8.42906 11 7C11 4.79234 12.7923 3 15 3C17.2077 3 19 4.79234 19 7Z" stroke="currentColor" stroke-width="2" stroke-linecap="round" stroke-linejoin="round"/>
</svg>
