<svg viewBox="0 0 24 24" fill="none" xmlns="http://www.w3.org/2000/svg" aria-hidden="true">
<path id="Vector" d="M22 12C22 17.5192 17.5192 22 12 22C6.48085 22 2 17.5192 2 12C2 6.48085 6.48085 2 12 2C17.5192 2 22 6.48085 22 12V12" stroke="currentColor" stroke-width="2" stroke-linecap="round" stroke-linejoin="round"/>
<path id="Vector_2" d="M18 12C18 15.3115 15.3115 18 12 18C8.68851 18 6 15.3115 6 12C6 8.68851 8.68851 6 12 6C15.3115 6 18 8.68851 18 12V12" stroke="currentColor" stroke-width="2" stroke-linecap="round" stroke-linejoin="round"/>
<path id="Vector_3" d="M14 12C14 13.1038 13.1038 14 12 14C10.8962 14 10 13.1038 10 12C10 10.8962 10.8962 10 12 10C13.1038 10 14 10.8962 14 12V12" stroke="currentColor" stroke-width="2" stroke-linecap="round" stroke-linejoin="round"/>
</svg>
