<svg viewBox="0 0 24 24" fill="none" xmlns="http://www.w3.org/2000/svg" aria-hidden="true">
<path id="Vector" d="M20 6H4C2.89617 6 2 6.89617 2 8V16C2 17.1038 2.89617 18 4 18H20C21.1038 18 22 17.1038 22 16V8C22 6.89617 21.1038 6 20 6V6" stroke="currentColor" stroke-width="2" stroke-linecap="round" stroke-linejoin="round"/>
<path id="Vector_2" d="M14 12C14 13.1038 13.1038 14 12 14C10.8962 14 10 13.1038 10 12C10 10.8962 10.8962 10 12 10C13.1038 10 14 10.8962 14 12V12" stroke="currentColor" stroke-width="2" stroke-linecap="round" stroke-linejoin="round"/>
<path id="Vector_3" d="M18 12H17.99M6 12H5.99" stroke="currentColor" stroke-width="2" stroke-linecap="round" stroke-linejoin="round"/>
</svg>
