<svg viewBox="0 0 24 24" fill="none" xmlns="http://www.w3.org/2000/svg" aria-hidden="true">
<path id="Vector" d="M19 3H5C3.89617 3 3 3.89617 3 5V19C3 20.1038 3.89617 21 5 21H19C20.1038 21 21 20.1038 21 19V5C21 3.89617 20.1038 3 19 3V3" stroke="currentColor" stroke-width="2" stroke-linecap="round" stroke-linejoin="round"/>
<path id="Vector_2" d="M17 9C17 10.1038 16.1038 11 15 11C13.8962 11 13 10.1038 13 9C13 7.89617 13.8962 7 15 7C16.1038 7 17 7.89617 17 9V9" stroke="currentColor" stroke-width="2" stroke-linecap="round" stroke-linejoin="round"/>
<path id="Vector_3" d="M3 14.9997L6.086 11.9137C6.867 11.1329 8.133 11.1329 8.914 11.9137L18 20.9997" stroke="currentColor" stroke-width="2" stroke-linecap="round" stroke-linejoin="round"/>
</svg>
