<svg viewBox="0 0 24 24" fill="none" xmlns="http://www.w3.org/2000/svg" aria-hidden="true">
<g id="vuesax/outline/document-text_2">
<g id="document-text">
<path id="Vector" d="M9 22.75H15C20.43 22.75 22.75 20.43 22.75 15V9C22.75 3.57 20.43 1.25 15 1.25H10C9.59 1.25 9.25 1.59 9.25 2C9.25 2.41 9.59 2.75 10 2.75H15C19.61 2.75 21.25 4.39 21.25 9V15C21.25 19.61 19.61 21.25 15 21.25H9C4.39 21.25 2.75 19.61 2.75 15V10C2.75 9.59 2.41 9.25 2 9.25C1.59 9.25 1.25 9.59 1.25 10V15C1.25 20.43 3.57 22.75 9 22.75Z" fill="currentColor"/>
<path id="Vector_2" d="M2 10.7505H6C9.42 10.7505 10.75 9.42048 10.75 6.00048V2.00048C10.75 1.70048 10.57 1.42048 10.29 1.31048C10.01 1.19048 9.69 1.26048 9.47 1.47048L1.47 9.47048C1.26 9.68048 1.19 10.0105 1.31 10.2905C1.43 10.5705 1.7 10.7505 2 10.7505ZM9.25 3.81048V6.00048C9.25 8.58048 8.58 9.25048 6 9.25048H3.81L9.25 3.81048Z" fill="currentColor"/>
<path id="Vector_3" d="M11 13.75H17C17.41 13.75 17.75 13.41 17.75 13C17.75 12.59 17.41 12.25 17 12.25H11C10.59 12.25 10.25 12.59 10.25 13C10.25 13.41 10.59 13.75 11 13.75Z" fill="currentColor"/>
<path id="Vector_4" d="M13 17.75H17C17.41 17.75 17.75 17.41 17.75 17C17.75 16.59 17.41 16.25 17 16.25H13C12.59 16.25 12.25 16.59 12.25 17C12.25 17.41 12.59 17.75 13 17.75Z" fill="currentColor"/>
</g>
</g>
</svg>
