<svg width="17" height="19" viewBox="0 0 17 19" fill="none" xmlns="http://www.w3.org/2000/svg">
<path d="M8.19409 18.247H7.14409C7.0153 18.2466 6.88806 18.2188 6.77079 18.1656C6.65352 18.1123 6.54889 18.0348 6.46382 17.9381C6.37875 17.8414 6.31517 17.7277 6.27729 17.6046C6.23942 17.4815 6.2281 17.3518 6.24409 17.224L6.93709 11.676H3.59409L3.08109 12.576C2.97811 12.755 2.83485 12.9076 2.66266 13.0216C2.49048 13.1357 2.2941 13.208 2.08909 13.233L1.39409 13.311C1.24548 13.33 1.09448 13.3116 0.954778 13.2575C0.815078 13.2033 0.691102 13.1152 0.594095 13.001C0.496549 12.8872 0.428621 12.7511 0.396347 12.6047C0.364073 12.4583 0.368452 12.3063 0.409094 12.162L1.18309 9.393C1.20008 9.33658 1.20008 9.27642 1.18309 9.22L0.408095 6.456C0.368469 6.31205 0.364874 6.16055 0.397626 6.01488C0.430378 5.8692 0.498472 5.73383 0.595901 5.62069C0.693331 5.50755 0.817103 5.42012 0.956303 5.36611C1.0955 5.3121 1.24585 5.29318 1.39409 5.311L2.08909 5.394C2.29401 5.41886 2.49033 5.49108 2.6625 5.60494C2.83468 5.7188 2.97799 5.87117 3.08109 6.05L3.59409 6.95H6.93409L6.24009 1.399C6.22395 1.27113 6.23515 1.14128 6.27296 1.01806C6.31076 0.89484 6.37432 0.781058 6.45941 0.684246C6.54449 0.587434 6.64918 0.509802 6.76652 0.45649C6.88387 0.403177 7.01121 0.375401 7.14009 0.375H8.19409C8.46254 0.376424 8.72427 0.459047 8.94487 0.612007C9.16547 0.764967 9.33463 0.981103 9.43009 1.232L11.5741 6.946H12.6201C13.2109 6.94607 13.8001 7.00774 14.3781 7.13C14.6643 7.17689 14.9383 7.2807 15.1837 7.43528C15.4292 7.58987 15.6411 7.79209 15.8071 8.03C15.9802 8.2737 16.1019 8.55013 16.1647 8.84241C16.2274 9.1347 16.2299 9.4367 16.1721 9.73C16.072 10.1887 15.8334 10.6056 15.4886 10.9241C15.1437 11.2427 14.7093 11.4476 14.2441 11.511L14.0841 11.535C13.5149 11.6257 12.9395 11.6715 12.3631 11.672H11.5761L9.43209 17.386C9.33715 17.638 9.16796 17.8552 8.94691 18.0089C8.72586 18.1626 8.46335 18.2457 8.19409 18.247ZM7.24309 17.247H8.19409C8.25946 17.247 8.32325 17.2269 8.37688 17.1896C8.43052 17.1522 8.47142 17.0993 8.49409 17.038L10.7081 11.133C10.7592 10.999 10.8497 10.8836 10.9677 10.802C11.0857 10.7204 11.2256 10.6765 11.3691 10.676H12.3601C12.8849 10.6755 13.4089 10.6337 13.9271 10.551L14.0871 10.526C14.3479 10.4932 14.5927 10.382 14.7891 10.2073C14.9855 10.0325 15.1242 9.80227 15.1871 9.547C15.2181 9.38538 15.2164 9.21917 15.1821 9.05823C15.1477 8.89728 15.0814 8.74486 14.9871 8.61C14.8952 8.47771 14.7777 8.36526 14.6414 8.27936C14.5052 8.19346 14.3531 8.13586 14.1941 8.11C13.6756 8.00021 13.1471 7.94424 12.6171 7.943H11.3671C11.2238 7.94259 11.0839 7.89882 10.9659 7.81743C10.848 7.73604 10.7574 7.62084 10.7061 7.487L8.49409 1.584C8.47142 1.52269 8.43052 1.4698 8.37688 1.43244C8.32325 1.39507 8.25946 1.37503 8.19409 1.375H7.24309L7.96509 7.153C7.97842 7.25242 7.97023 7.35354 7.94108 7.44951C7.91192 7.54549 7.86247 7.63407 7.79609 7.70927C7.72971 7.78447 7.64795 7.84453 7.55633 7.88537C7.46472 7.92621 7.3654 7.94689 7.26509 7.946H3.42109C3.29601 7.94648 3.17308 7.91343 3.0651 7.85029C2.95712 7.78716 2.86803 7.69624 2.80709 7.587L2.20709 6.542C2.18231 6.49828 2.14758 6.46101 2.10571 6.43321C2.06384 6.40542 2.01601 6.38787 1.96609 6.382L1.40709 6.311L2.14509 8.951C2.20912 9.18368 2.20912 9.42932 2.14509 9.662L1.40709 12.311L1.96909 12.244C2.01901 12.2381 2.06684 12.2206 2.10871 12.1928C2.15058 12.165 2.18531 12.1277 2.21009 12.084L2.81009 11.035C2.87138 10.9268 2.96038 10.8369 3.06794 10.7745C3.17551 10.7121 3.29775 10.6795 3.42209 10.68H7.26809C7.36849 10.6791 7.46791 10.6998 7.55961 10.7407C7.6513 10.7816 7.73312 10.8417 7.79952 10.9171C7.86592 10.9924 7.91533 11.0811 7.94442 11.1772C7.97351 11.2733 7.98158 11.3745 7.96809 11.474L7.24309 17.247Z" fill="#666666"/>
<path d="M3.68009 11.523V11.528M8.19409 18.247H7.14409C7.0153 18.2466 6.88806 18.2188 6.77079 18.1656C6.65352 18.1123 6.54889 18.0348 6.46382 17.9381C6.37875 17.8414 6.31517 17.7277 6.27729 17.6046C6.23942 17.4815 6.2281 17.3518 6.24409 17.224L6.93709 11.676H3.59409L3.08109 12.576C2.97811 12.755 2.83485 12.9076 2.66266 13.0216C2.49048 13.1357 2.2941 13.208 2.08909 13.233L1.39409 13.311C1.24548 13.33 1.09448 13.3116 0.954778 13.2575C0.815078 13.2033 0.691102 13.1152 0.594095 13.001C0.496549 12.8872 0.428621 12.7511 0.396347 12.6047C0.364073 12.4583 0.368452 12.3063 0.409094 12.162L1.18309 9.393C1.20008 9.33658 1.20008 9.27642 1.18309 9.22L0.408095 6.456C0.368469 6.31204 0.364874 6.16055 0.397626 6.01488C0.430378 5.8692 0.498472 5.73383 0.595901 5.62069C0.693331 5.50755 0.817103 5.42012 0.956303 5.36611C1.0955 5.3121 1.24585 5.29318 1.39409 5.311L2.08909 5.394C2.29401 5.41886 2.49033 5.49108 2.6625 5.60494C2.83468 5.7188 2.97799 5.87117 3.08109 6.05L3.59409 6.95H6.93409L6.24009 1.399C6.22395 1.27113 6.23515 1.14128 6.27296 1.01806C6.31076 0.89484 6.37432 0.781058 6.45941 0.684246C6.54449 0.587434 6.64918 0.509802 6.76652 0.45649C6.88387 0.403177 7.01121 0.375401 7.14009 0.375H8.19409C8.46254 0.376424 8.72427 0.459047 8.94487 0.612007C9.16547 0.764967 9.33463 0.981103 9.43009 1.232L11.5741 6.946H12.6201C13.2109 6.94607 13.8001 7.00774 14.3781 7.13C14.6643 7.17689 14.9383 7.2807 15.1837 7.43528C15.4292 7.58987 15.6411 7.79209 15.8071 8.03C15.9802 8.2737 16.1019 8.55013 16.1647 8.84241C16.2274 9.1347 16.2299 9.4367 16.1721 9.73C16.072 10.1887 15.8334 10.6056 15.4886 10.9241C15.1437 11.2427 14.7093 11.4476 14.2441 11.511L14.0841 11.535C13.5149 11.6257 12.9395 11.6715 12.3631 11.672H11.5761L9.43209 17.386C9.33715 17.638 9.16796 17.8552 8.94691 18.0089C8.72586 18.1626 8.46335 18.2457 8.19409 18.247ZM7.24309 17.247H8.19409C8.25946 17.247 8.32325 17.2269 8.37688 17.1896C8.43052 17.1522 8.47142 17.0993 8.49409 17.038L10.7081 11.133C10.7592 10.999 10.8497 10.8836 10.9677 10.802C11.0857 10.7204 11.2256 10.6765 11.3691 10.676H12.3601C12.8849 10.6755 13.4089 10.6337 13.9271 10.551L14.0871 10.526C14.3479 10.4932 14.5927 10.382 14.7891 10.2073C14.9855 10.0325 15.1242 9.80227 15.1871 9.547C15.2181 9.38538 15.2164 9.21917 15.1821 9.05823C15.1477 8.89728 15.0814 8.74486 14.9871 8.61C14.8952 8.47771 14.7777 8.36526 14.6414 8.27936C14.5052 8.19346 14.3531 8.13586 14.1941 8.11C13.6756 8.00021 13.1471 7.94424 12.6171 7.943H11.3671C11.2238 7.94259 11.0839 7.89882 10.9659 7.81743C10.848 7.73604 10.7574 7.62084 10.7061 7.487L8.49409 1.584C8.47142 1.52269 8.43052 1.4698 8.37688 1.43244C8.32325 1.39507 8.25946 1.37503 8.19409 1.375H7.24309L7.96509 7.153C7.97842 7.25242 7.97023 7.35354 7.94108 7.44951C7.91192 7.54549 7.86247 7.63407 7.79609 7.70927C7.72971 7.78447 7.64795 7.84453 7.55633 7.88537C7.46472 7.92621 7.3654 7.94689 7.26509 7.946H3.42109C3.29601 7.94648 3.17308 7.91343 3.0651 7.85029C2.95712 7.78716 2.86803 7.69624 2.80709 7.587L2.20709 6.542C2.18231 6.49828 2.14758 6.46101 2.10571 6.43321C2.06384 6.40542 2.01601 6.38787 1.96609 6.382L1.40709 6.311L2.14509 8.951C2.20912 9.18368 2.20912 9.42932 2.14509 9.662L1.40709 12.311L1.96909 12.244C2.01901 12.2381 2.06684 12.2206 2.10871 12.1928C2.15058 12.165 2.18531 12.1277 2.21009 12.084L2.81009 11.035C2.87138 10.9268 2.96038 10.8369 3.06794 10.7745C3.17551 10.7121 3.29775 10.6795 3.42209 10.68H7.26809C7.36849 10.6791 7.46791 10.6998 7.55961 10.7407C7.6513 10.7816 7.73312 10.8417 7.79952 10.9171C7.86592 10.9924 7.91533 11.0811 7.94442 11.1772C7.97351 11.2733 7.98158 11.3745 7.96809 11.474L7.24309 17.247Z" stroke="#666666" stroke-width="0.75"/>
</svg>
