<svg viewBox="0 0 24 24" fill="none" xmlns="http://www.w3.org/2000/svg" aria-hidden="true">
<path id="Vector" d="M3.99951 13.9987C3.61326 14 3.26079 13.7788 3.09406 13.4304C2.92734 13.082 2.97617 12.6687 3.21951 12.3687L13.1195 2.16872C13.2725 1.99217 13.5273 1.94505 13.7332 2.05523C13.9392 2.1654 14.0415 2.4035 13.9795 2.62872L12.0595 8.64872C11.9446 8.9563 11.988 9.30069 12.1756 9.57015C12.3632 9.8396 12.6712 9.99979 12.9995 9.99872H19.9995C20.3858 9.9974 20.7382 10.2186 20.905 10.5671C21.0717 10.9155 21.0229 11.3288 20.7795 11.6287L10.8795 21.8287C10.7266 22.0053 10.4718 22.0524 10.2658 21.9422C10.0598 21.832 9.95756 21.5939 10.0195 21.3687L11.9395 15.3487C12.0544 15.0411 12.011 14.6968 11.8234 14.4273C11.6358 14.1578 11.3279 13.9977 10.9995 13.9987H3.99951" stroke="currentColor" stroke-width="2" stroke-linecap="round" stroke-linejoin="round"/>
</svg>
