<svg viewBox="0 0 24 24" fill="none" xmlns="http://www.w3.org/2000/svg" aria-hidden="true">
<path id="Vector" d="M9.67053 4.13615C9.78471 2.935 10.7935 2.01758 12 2.01758C13.2066 2.01758 14.2154 2.935 14.3295 4.13615C14.3967 4.89609 14.8302 5.57556 15.491 5.95683C16.1518 6.3381 16.957 6.3733 17.6485 6.05115C18.7448 5.55344 20.0398 5.96879 20.6421 7.01126C21.2443 8.05373 20.9573 9.38306 19.9785 10.0842C19.3542 10.5222 18.9826 11.237 18.9826 11.9997C18.9826 12.7623 19.3542 13.4771 19.9785 13.9152C20.9573 14.6162 21.2443 15.9456 20.6421 16.988C20.0398 18.0305 18.7448 18.4459 17.6485 17.9482C16.957 17.626 16.1518 17.6612 15.491 18.0425C14.8302 18.4237 14.3967 19.1032 14.3295 19.8632C14.2154 21.0643 13.2066 21.9817 12 21.9817C10.7935 21.9817 9.78471 21.0643 9.67053 19.8632C9.60345 19.1029 9.16985 18.4232 8.50877 18.0419C7.84768 17.6606 7.04218 17.6256 6.35053 17.9482C5.25429 18.4459 3.95929 18.0305 3.35702 16.988C2.75475 15.9456 3.04179 14.6162 4.02053 13.9152C4.64483 13.4771 5.01649 12.7623 5.01649 11.9997C5.01649 11.237 4.64483 10.5222 4.02053 10.0842C3.04321 9.38275 2.75693 8.0546 3.35852 7.01286C3.96011 5.97113 5.25354 5.55524 6.34953 6.05115C7.04109 6.3733 7.84627 6.3381 8.50707 5.95683C9.16787 5.57556 9.60132 4.89609 9.66853 4.13615" stroke="currentColor" stroke-width="2" stroke-linecap="round" stroke-linejoin="round"/>
<path id="Vector_2" d="M9 12C9 13.6557 10.3443 15 12 15C13.6557 15 15 13.6557 15 12C15 10.3443 13.6557 9 12 9C10.3443 9 9 10.3443 9 12V12" stroke="currentColor" stroke-width="2" stroke-linecap="round" stroke-linejoin="round"/>
</svg>
