<svg viewBox="0 0 24 24" fill="none" xmlns="http://www.w3.org/2000/svg" aria-hidden="true">
<path id="Vector" d="M11 12C11 12.5519 11.4481 13 12 13C12.5519 13 13 12.5519 13 12C13 11.4481 12.5519 11 12 11C11.4481 11 11 11.4481 11 12V12" stroke="currentColor" stroke-width="2" stroke-linecap="round" stroke-linejoin="round"/>
<path id="Vector_2" d="M20.1994 20.1994C22.2394 18.1694 20.2194 12.8394 15.6994 8.2994C11.1594 3.7794 5.8294 1.7594 3.7994 3.7994C1.7594 5.8294 3.7794 11.1594 8.2994 15.6994C12.8394 20.2194 18.1694 22.2394 20.1994 20.1994V20.1994" stroke="currentColor" stroke-width="2" stroke-linecap="round" stroke-linejoin="round"/>
<path id="Vector_3" d="M15.6994 15.6994C20.2194 11.1594 22.2394 5.8294 20.1994 3.7994C18.1694 1.7594 12.8394 3.7794 8.2994 8.2994C3.7794 12.8394 1.7594 18.1694 3.7994 20.1994C5.8294 22.2394 11.1594 20.2194 15.6994 15.6994V15.6994" stroke="currentColor" stroke-width="2" stroke-linecap="round" stroke-linejoin="round"/>
</svg>
