<svg viewBox="0 0 24 24" fill="none" xmlns="http://www.w3.org/2000/svg" aria-hidden="true">
<path id="Vector" d="M15 18H10" stroke="currentColor" stroke-width="2" stroke-linecap="round" stroke-linejoin="round"/>
<path id="Vector_2" d="M18 14H10" stroke="currentColor" stroke-width="2" stroke-linecap="round" stroke-linejoin="round"/>
<path id="Vector_3" d="M4 22H20C21.1038 22 22 21.1038 22 20V4C22 2.89617 21.1038 2 20 2H8C6.89617 2 6 2.89617 6 4V20C6 21.1038 5.10383 22 4 22C2.89617 22 2 21.1038 2 20V11C2 9.89617 2.89617 9 4 9H6" stroke="currentColor" stroke-width="2" stroke-linecap="round" stroke-linejoin="round"/>
<path id="Vector_4" d="M11 6H17C17.5519 6 18 6.44808 18 7V9C18 9.55192 17.5519 10 17 10H11C10.4481 10 10 9.55192 10 9V7C10 6.44808 10.4481 6 11 6V6" stroke="currentColor" stroke-width="2" stroke-linecap="round" stroke-linejoin="round"/>
</svg>
