<svg viewBox="0 0 24 24" fill="none" xmlns="http://www.w3.org/2000/svg" aria-hidden="true">
<path id="Vector" d="M12 7V11" stroke="currentColor" stroke-width="2" stroke-linecap="round" stroke-linejoin="round"/>
<path id="Vector_2" d="M14 21V18C14 16.8962 13.1038 16 12 16C10.8962 16 10 16.8962 10 18V21" stroke="currentColor" stroke-width="2" stroke-linecap="round" stroke-linejoin="round"/>
<path id="Vector_3" d="M14 9H10" stroke="currentColor" stroke-width="2" stroke-linecap="round" stroke-linejoin="round"/>
<path id="Vector_4" d="M18 11H20C21.1038 11 22 11.8962 22 13V19C22 20.1038 21.1038 21 20 21H4C2.89617 21 2 20.1038 2 19V10C2 8.89617 2.89617 8 4 8H6" stroke="currentColor" stroke-width="2" stroke-linecap="round" stroke-linejoin="round"/>
<path id="Vector_5" d="M18 21V5C18 3.89617 17.1038 3 16 3H8C6.89617 3 6 3.89617 6 5V21" stroke="currentColor" stroke-width="2" stroke-linecap="round" stroke-linejoin="round"/>
</svg>
