<svg width="96" height="96" viewBox="0 0 96 96" fill="none" xmlns="http://www.w3.org/2000/svg">
<path d="M87.2757 47.9992C87.2757 58.8427 82.8721 68.6709 75.7725 75.7705C68.6729 82.8701 58.8445 87.2737 48.0011 87.2737C37.1577 87.2737 27.3294 82.8701 20.2298 75.7705C13.1302 68.6709 8.72656 58.8426 8.72656 47.9992C8.72656 37.1559 13.1302 27.3275 20.2298 20.2279C27.3294 13.1282 37.1577 8.72461 48.0011 8.72461C58.8445 8.72461 68.6728 13.1282 75.7725 20.2279C82.8721 27.3276 87.2757 37.1558 87.2757 47.9992Z" fill="#FF270E"/>
<g opacity="0.3">
<path d="M48.4727 54.4505L41.5475 47.5254L29.381 59.692L17.2142 47.5254L10.2891 54.4505L22.4557 66.6173L10.2891 78.7839L17.2142 85.7091L29.381 73.5426L41.5475 85.7091L48.4727 78.7839L36.3061 66.6173L48.4727 54.4505Z" fill="white"/>
<path d="M49.0742 53.8509L42.1491 46.9258L29.9824 59.0923L17.8158 46.9258L10.8906 53.8509L23.0573 66.0176L10.8906 78.1842L17.8158 85.1095L29.9824 72.9428L42.1491 85.1095L49.0742 78.1842L36.9076 66.0176L49.0742 53.8509Z" fill="#FBF7F7"/>
<path d="M49.6797 53.2492L42.7545 46.3242L30.588 58.4909L18.4212 46.3242L11.4961 53.2492L23.6627 65.416L11.4961 77.5827L18.4212 84.5079L30.588 72.3413L42.7545 84.5079L49.6797 77.5827L37.513 65.416L49.6797 53.2492Z" fill="#F7EFEF"/>
<path d="M50.2773 52.6496L43.3522 45.7246L31.1856 57.8913L19.0189 45.7246L12.0938 52.6496L24.2604 64.8164L12.0938 76.983L19.0189 83.9083L31.1856 71.7417L43.3522 83.9083L50.2773 76.983L38.1107 64.8164L50.2773 52.6496Z" fill="#F3E7E6"/>
<path d="M50.8789 52.0482L43.9538 45.123L31.7871 57.2897L19.6205 45.123L12.6953 52.0482L24.862 64.2148L12.6953 76.3815L19.6205 83.3068L31.7871 71.1401L43.9538 83.3068L50.8789 76.3815L38.7123 64.2148L50.8789 52.0482Z" fill="#EFE0DE"/>
<path d="M51.4766 51.4466L44.5514 44.5215L32.3848 56.6881L20.2181 44.5215L13.293 51.4466L25.4596 63.6133L13.293 75.7799L20.2181 82.7052L32.3848 70.5385L44.5514 82.7052L51.4766 75.7799L39.3099 63.6133L51.4766 51.4466Z" fill="#EBD8D6"/>
<path d="M52.0781 50.847L45.153 43.9219L32.9863 56.0885L20.8197 43.9219L13.8945 50.847L26.0612 63.0137L13.8945 75.1803L20.8197 82.1056L32.9863 69.9389L45.153 82.1056L52.0781 75.1803L39.9115 63.0137L52.0781 50.847Z" fill="#E6D0CE"/>
<path d="M52.6797 50.2474L45.7545 43.3223L33.5879 55.4889L21.4212 43.3223L14.4961 50.2474L26.6627 62.4141L14.4961 74.5807L21.4212 81.506L33.5879 69.3393L45.7545 81.506L52.6797 74.5807L40.513 62.4141L52.6797 50.2474Z" fill="#E2C8C5"/>
<path d="M53.2773 49.6478L46.3522 42.7227L34.1855 54.8893L22.0189 42.7227L15.0938 49.6478L27.2604 61.8145L15.0938 73.9811L22.0189 80.9064L34.1855 68.7397L46.3522 80.9064L53.2773 73.9811L41.1107 61.8145L53.2773 49.6478Z" fill="#DEC0BD"/>
<path d="M53.8789 49.0443L46.9538 42.1191L34.7871 54.2858L22.6204 42.1191L15.6953 49.0443L27.862 61.2109L15.6953 73.3776L22.6204 80.3028L34.7871 68.1362L46.9538 80.3028L53.8789 73.3776L41.7123 61.2109L53.8789 49.0443Z" fill="#DAB8B5"/>
<path d="M54.4805 48.4447L47.5553 41.5195L35.3887 53.6862L23.222 41.5195L16.2969 48.4447L28.4635 60.6113L16.2969 72.778L23.222 79.7032L35.3887 67.5366L47.5553 79.7032L54.4805 72.778L42.3138 60.6113L54.4805 48.4447Z" fill="#D6B1AD"/>
<path d="M55.082 47.8451L48.1569 40.9199L35.9902 53.0866L23.8236 40.9199L16.8984 47.8451L29.0651 60.0117L16.8984 72.1784L23.8236 79.1036L35.9902 66.937L48.1569 79.1036L55.082 72.1784L42.9154 60.0117L55.082 47.8451Z" fill="#D2A9A5"/>
<path d="M55.6836 47.2454L48.7585 40.3203L36.5918 52.487L24.4252 40.3203L17.5 47.2454L29.6665 59.4121L17.5 71.5788L24.4252 78.504L36.5918 66.3374L48.7585 78.504L55.6836 71.5788L43.5169 59.4121L55.6836 47.2454Z" fill="#CEA19C"/>
<path d="M56.2812 46.6439L49.3561 39.7188L37.1895 51.8854L25.0228 39.7188L18.0977 46.6439L30.2642 58.8105L18.0977 70.9772L25.0228 77.9025L37.1895 65.7358L49.3561 77.9025L56.2812 70.9772L44.1146 58.8105L56.2812 46.6439Z" fill="#CA9994"/>
<path d="M56.8828 46.0423L49.9577 39.1172L37.791 51.2838L25.6244 39.1172L18.6992 46.0423L30.8658 58.2091L18.6992 70.3756L25.6244 77.3009L37.791 65.1343L49.9577 77.3009L56.8828 70.3756L44.7162 58.2091L56.8828 46.0423Z" fill="#C6918C"/>
<path d="M57.4845 45.4427L50.5594 38.5176L38.3927 50.6842L26.2259 38.5176L19.3008 45.4427L31.4674 57.6095L19.3008 69.776L26.2259 76.7013L38.3927 64.5346L50.5594 76.7013L57.4845 69.776L45.3179 57.6095L57.4845 45.4427Z" fill="#C28984"/>
<path d="M58.0859 44.8412L51.1608 37.916L38.9941 50.0827L26.8274 37.916L19.9023 44.8412L32.0689 57.0079L19.9023 69.1746L26.8274 76.0997L38.9941 63.9331L51.1608 76.0997L58.0859 69.1746L45.9193 57.0079L58.0859 44.8412Z" fill="#BD827B"/>
<path d="M58.6876 44.2416L51.7625 37.3164L39.5957 49.4831L27.429 37.3164L20.5039 44.2416L32.6706 56.4083L20.5039 68.575L27.429 75.5001L39.5957 63.3335L51.7625 75.5001L58.6876 68.575L46.521 56.4083L58.6876 44.2416Z" fill="#B97A73"/>
<path d="M59.2853 43.6419L52.3601 36.7168L40.1933 48.8834L28.0267 36.7168L21.1016 43.6419L33.2682 55.8087L21.1016 67.9754L28.0267 74.9005L40.1933 62.7339L52.3601 74.9005L59.2853 67.9754L47.1186 55.8087L59.2853 43.6419Z" fill="#B5726B"/>
<path d="M59.8868 43.0404L52.9617 36.1152L40.7949 48.2819L28.6283 36.1152L21.7031 43.0404L33.8698 55.2071L21.7031 67.3738L28.6283 74.2989L40.7949 62.1323L52.9617 74.2989L59.8868 67.3738L47.7202 55.2071L59.8868 43.0404Z" fill="#B16A63"/>
<path d="M60.4884 42.4388L53.5633 35.5137L41.3965 47.6803L29.2298 35.5137L22.3047 42.4388L34.4713 54.6056L22.3047 66.7722L29.2298 73.6974L41.3965 61.5307L53.5633 73.6974L60.4884 66.7722L48.3217 54.6056L60.4884 42.4388Z" fill="#AD625A"/>
<path d="M61.0859 41.8392L54.1609 34.9141L41.9941 47.0807L29.8275 34.9141L22.9023 41.8392L35.069 54.006L22.9023 66.1726L29.8275 73.0978L41.9941 60.9312L54.1609 73.0978L61.0859 66.1726L48.9194 54.006L61.0859 41.8392Z" fill="#A95A52"/>
<path d="M61.6875 41.2396L54.7625 34.3145L42.5957 46.4811L30.4291 34.3145L23.5039 41.2396L35.6706 53.4064L23.5039 65.573L30.4291 72.4982L42.5957 60.3316L54.7625 72.4982L61.6875 65.573L49.521 53.4064L61.6875 41.2396Z" fill="#A5534A"/>
<path d="M62.2852 40.636L55.3601 33.7109L43.1934 45.8775L31.0267 33.7109L24.1016 40.636L36.2682 52.8027L24.1016 64.9694L31.0267 71.8945L43.1934 59.728L55.3601 71.8945L62.2852 64.9694L50.1186 52.8027L62.2852 40.636Z" fill="#A14B42"/>
<path d="M62.8906 40.0364L55.9656 33.1113L43.7988 45.2779L31.6322 33.1113L24.707 40.0364L36.8737 52.2031L24.707 64.3698L31.6322 71.2949L43.7988 59.1284L55.9656 71.2949L62.8906 64.3698L50.7241 52.2031L62.8906 40.0364Z" fill="#9D433A"/>
<path d="M63.4883 39.4369L56.5631 32.5117L44.3965 44.6784L32.2298 32.5117L25.3047 39.4369L37.4713 51.6036L25.3047 63.7703L32.2298 70.6954L44.3965 58.5289L56.5631 70.6954L63.4883 63.7703L51.3217 51.6036L63.4883 39.4369Z" fill="#993B31"/>
<path d="M64.0898 38.8373L57.1647 31.9121L44.998 44.0786L32.8314 31.9121L25.9062 38.8373L38.0729 51.0039L25.9062 63.1706L32.8314 70.0957L44.998 57.9292L57.1647 70.0957L64.0898 63.1706L51.9232 51.0039L64.0898 38.8373Z" fill="#943329"/>
<path d="M64.6914 38.2357L57.7663 31.3105L45.5996 43.4772L33.4329 31.3105L26.5078 38.2357L38.6745 50.4023L26.5078 62.569L33.4329 69.4941L45.5996 57.3276L57.7663 69.4941L64.6914 62.569L52.5248 50.4023L64.6914 38.2357Z" fill="#902B21"/>
<path d="M65.2891 37.6341L58.3639 30.709L46.1973 42.8756L34.0306 30.709L27.1055 37.6341L39.2721 49.8008L27.1055 61.9674L34.0306 68.8927L46.1973 56.726L58.3639 68.8927L65.2891 61.9674L53.1224 49.8008L65.2891 37.6341Z" fill="#8C2419"/>
<path d="M65.8906 37.0345L58.9655 30.1094L46.7988 42.276L34.6322 30.1094L27.707 37.0345L39.8737 49.2012L27.707 61.3678L34.6322 68.2931L46.7988 56.1264L58.9655 68.2931L65.8906 61.3678L53.724 49.2012L65.8906 37.0345Z" fill="#881C10"/>
<path d="M66.4922 36.4329L59.567 29.5078L47.4004 41.6745L35.2337 29.5078L28.3086 36.4329L40.4752 48.5996L28.3086 60.7663L35.2337 67.6915L47.4004 55.5249L59.567 67.6915L66.4922 60.7663L54.3255 48.5996L66.4922 36.4329Z" fill="#841408"/>
<path d="M67.0937 35.8333L60.1686 28.9082L48.002 41.0748L35.8353 28.9082L28.9102 35.8333L41.0768 48L28.9102 60.1666L35.8353 67.0919L48.002 54.9253L60.1686 67.0919L67.0937 60.1666L54.9271 48L67.0937 35.8333Z" fill="#800C00"/>
</g>
<path d="M67.0937 35.8333L60.1686 28.9082L48.002 41.0748L35.8353 28.9082L28.9102 35.8333L41.0768 48L28.9102 60.1666L35.8353 67.0919L48.002 54.9253L60.1686 67.0919L67.0937 60.1666L54.9271 48L67.0937 35.8333Z" fill="white"/>
<path d="M47.9997 95.9989C35.1786 95.9989 23.1248 91.0062 14.0591 81.94C13.5391 81.42 13.0305 80.8879 12.5343 80.3442C12.248 80.0305 12.2705 79.5443 12.5837 79.2583C12.8978 78.9711 13.3839 78.9949 13.6696 79.3077C14.1501 79.8341 14.6423 80.3498 15.1459 80.8533C23.9218 89.6287 35.5895 94.4617 47.9998 94.4617C56.0851 94.4617 64.0528 92.3489 71.0415 88.3514C71.4111 88.1404 71.8798 88.269 72.0904 88.637C72.301 89.0057 72.1732 89.475 71.8049 89.6861C64.5839 93.8161 56.3522 95.9989 47.9997 95.9989ZM83.4387 79.9906C83.2584 79.9906 83.0768 79.9273 82.9309 79.7987C82.6124 79.518 82.5816 79.0322 82.8623 78.7137C90.3428 70.2264 94.462 59.3183 94.462 47.9993V47.8606C94.462 47.436 94.8061 47.092 95.2307 47.092C95.6553 47.092 95.9993 47.436 95.9993 47.8606V47.9993C95.9993 59.693 91.7435 70.9616 84.0158 79.7301C83.8637 79.9026 83.6518 79.9906 83.4387 79.9906ZM0.768631 48.8026C0.344439 48.8026 0 48.4932 0 48.0686C0 48.0639 0.000485312 47.9893 0.000485312 47.9845C0.000485312 36.332 4.23987 25.0819 11.9373 16.3217C12.2176 16.0028 12.7034 15.9716 13.0221 16.2515C13.341 16.5318 13.3722 17.0175 13.0924 17.3364C5.64112 25.8159 1.53775 36.7055 1.53775 47.9992C1.53775 48.4239 1.19318 48.8026 0.768631 48.8026ZM82.8507 16.8906C82.6426 16.8906 82.4352 16.8065 82.2835 16.6405C81.8181 16.1318 81.3411 15.6336 80.8537 15.1457C72.0777 6.37023 60.41 1.53726 47.9997 1.53726C47.9992 1.53726 47.998 1.53726 47.9975 1.53726C39.8902 1.53726 31.9037 3.66172 24.8995 7.68137C24.5312 7.89196 24.0612 7.7651 23.8501 7.39717C23.639 7.02888 23.766 6.55926 24.1343 6.3477C31.3703 2.19505 39.6223 0 47.997 0C47.9983 0 47.9988 0 47.9995 0C60.8207 0 72.8745 4.99285 81.9402 14.0591C82.4441 14.5625 82.9368 15.0772 83.4177 15.6033C83.7042 15.9166 83.6825 16.4028 83.3692 16.6892C83.222 16.824 83.0361 16.8906 82.8507 16.8906Z" fill="#FF270E"/>
</svg>
