<svg width="213" height="247" viewBox="0 0 213 247" fill="none" xmlns="http://www.w3.org/2000/svg">
<path d="M182.964 10.8028H182.636L182.634 10.8027H180.502L29.9899 10.8028C27.4327 10.8028 25.3599 12.8758 25.3599 15.4329V24.257C25.3599 26.814 27.4329 28.887 29.9899 28.887H30.7147V30.801C30.7147 32.9695 31.1939 35.0315 32.0513 36.8865L32.0512 36.8864L32.0553 36.8953L32.1057 37.003L32.1072 37.0062C32.1608 37.1194 32.2158 37.2318 32.2721 37.3433L32.2819 37.3627C32.3577 37.5121 32.4359 37.6601 32.5165 37.8065L32.5201 37.813C32.5795 37.921 32.6405 38.0279 32.7025 38.1342L32.7128 38.1516C32.7965 38.2942 32.8826 38.4351 32.9709 38.5747L32.9829 38.5937C33.0719 38.7338 33.1632 38.8724 33.2569 39.0092L33.2652 39.0214C33.3344 39.1222 33.4046 39.2221 33.4762 39.3211L33.4847 39.3331L33.5563 39.431L33.5601 39.4364C33.6336 39.5359 33.7082 39.6346 33.7842 39.7322L33.7948 39.7458C33.8968 39.8766 34.0008 40.0059 34.1071 40.1332L34.1178 40.1461C34.1964 40.2401 34.2762 40.3331 34.3572 40.4252L34.3639 40.4329L34.4433 40.5221L34.4547 40.5349C34.5344 40.6236 34.615 40.7112 34.6966 40.7979L34.7146 40.817L34.795 40.9014L34.7985 40.905C34.8822 40.9922 34.9671 41.0782 35.053 41.1634L35.0802 41.1903C35.1615 41.2704 35.2436 41.3495 35.3266 41.4277L35.348 41.4479L35.4271 41.5215L35.4524 41.5448C35.5347 41.6205 35.618 41.6952 35.7019 41.769L35.7328 41.7962L35.8124 41.8653L35.8355 41.8851C35.8897 41.9316 35.9444 41.9778 35.9993 42.0235L36.0172 42.0384L36.0942 42.1017L36.1312 42.132L36.2084 42.1945L36.2394 42.2192L36.3814 42.3311L36.4249 42.3649L36.4987 42.4214L36.5424 42.4546L36.618 42.5115L36.6429 42.5299C36.6955 42.569 36.7482 42.6077 36.8014 42.6461L36.8377 42.6722L36.9174 42.729L36.962 42.7603C37.0212 42.802 37.0808 42.8433 37.1406 42.884L37.1421 42.885L37.2245 42.9404L37.2687 42.9701L37.3459 43.0212L37.3997 43.0562L37.5263 43.1376L37.5813 43.1725L37.6577 43.2201L37.7094 43.252L37.7866 43.2993L37.8373 43.3297L37.9671 43.4069L38.0331 43.4454L38.0984 43.4831L38.1726 43.5252L38.2339 43.5599L38.3544 43.6266L38.4197 43.6619L38.4908 43.7002L38.5574 43.7354L38.6417 43.7794L38.7157 43.8175L38.8214 43.871L38.8823 43.9013L38.9631 43.9409L39.0244 43.9708L39.1238 44.0181L39.2116 44.0593L39.2933 44.0969L39.3613 44.1277L39.4416 44.1636L39.502 44.1903L39.6336 44.2472L39.6918 44.2717L39.7811 44.309L39.8424 44.3342L39.9354 44.3718L39.9892 44.3933L40.1275 44.447L40.1788 44.4666L40.2765 44.5032L40.3346 44.5247L40.4662 44.5722L40.4999 44.5841L40.6253 44.6277L40.682 44.6468L40.7843 44.681L40.8336 44.6972L40.9792 44.7438L41.0217 44.7568L41.1364 44.7919L41.1859 44.8067L41.297 44.8392L41.346 44.8533L41.4925 44.8942L41.5388 44.9067L41.653 44.937L41.7012 44.9496L41.8433 44.9854L41.8584 44.9893L42.0107 45.0257L42.0654 45.0384L42.1792 45.064L42.2228 45.0736C42.2757 45.0851 42.3289 45.0965 42.382 45.1074L42.4043 45.1119L42.5392 45.1389L42.5917 45.1489L42.7156 45.172L42.7536 45.1789C42.8066 45.1884 42.8595 45.1975 42.9126 45.2065L42.9508 45.2128L43.0754 45.2328L43.1279 45.2409L43.259 45.2602L43.2904 45.2648C43.3434 45.2722 43.3967 45.2793 43.45 45.2863L43.4963 45.2921L43.6227 45.3074L43.6646 45.3124C43.72 45.3187 43.7752 45.3247 43.8306 45.3305L43.8414 45.3315L43.9942 45.3461L44.0438 45.3506L44.1717 45.3611L44.2126 45.3644C44.2677 45.3686 44.323 45.3725 44.3784 45.3761L44.4088 45.3779L44.546 45.3858L44.595 45.3883L44.7374 45.3946L44.7636 45.3957C44.819 45.3978 44.8745 45.3995 44.9301 45.401L44.9746 45.402L45.1046 45.4045L45.1508 45.4051L45.2442 45.4059C48.6487 75.8043 70.7011 103.11 90.8468 114.982C94.5056 117.138 94.5056 122.494 90.8468 124.65C69.1307 137.448 45.1988 168.179 44.7977 201.386L44.7634 201.387L44.7373 201.388L44.5949 201.394L44.5459 201.397L44.4087 201.405L44.3783 201.407C44.323 201.41 44.2676 201.414 44.2125 201.418L44.1716 201.421L44.0437 201.432L43.9941 201.436L43.8413 201.451L43.8305 201.452C43.7752 201.458 43.7198 201.464 43.6645 201.47L43.6226 201.475L43.4961 201.49L43.4499 201.496C43.3966 201.503 43.3433 201.51 43.2903 201.518L43.2589 201.522L43.1277 201.542L43.0753 201.55L42.9507 201.57L42.9125 201.576C42.8594 201.585 42.8065 201.594 42.7535 201.604L42.7155 201.611L42.5916 201.634L42.5391 201.644L42.4042 201.671L42.3819 201.675C42.3288 201.686 42.2756 201.698 42.2227 201.709L42.1791 201.719L42.0653 201.745L42.0105 201.757L41.8583 201.794L41.8432 201.797L41.701 201.833L41.6528 201.846L41.5387 201.876L41.4924 201.889L41.3459 201.929L41.2969 201.943L41.1858 201.976L41.1363 201.991L41.0216 202.026L40.979 202.039L40.8335 202.086L40.7842 202.102L40.6819 202.136L40.6252 202.155L40.4998 202.199L40.4661 202.211L40.3345 202.258L40.2764 202.28L40.1787 202.316L40.1274 202.336L39.989 202.389L39.9353 202.411L39.8412 202.449L39.7848 202.472L39.6872 202.513L39.6337 202.535L39.5018 202.592L39.4464 202.617L39.3575 202.657L39.2942 202.685L39.2039 202.727L39.1434 202.755L39.0244 202.812L38.9631 202.842L38.8823 202.881L38.8214 202.912L38.7157 202.965L38.6417 203.003L38.5566 203.048L38.4946 203.08L38.4116 203.125L38.3576 203.154L38.2338 203.223L38.1724 203.257L38.0983 203.3L38.033 203.337L37.9628 203.378L37.8576 203.44L37.7864 203.483L37.7092 203.53L37.6575 203.562L37.5811 203.61L37.5261 203.645L37.3994 203.726L37.3454 203.761L37.2725 203.81L37.2196 203.845L37.1419 203.897L37.1404 203.898C37.0805 203.939 37.021 203.98 36.9618 204.022L36.9171 204.053L36.8375 204.11L36.8012 204.136C36.748 204.175 36.6953 204.213 36.6426 204.252L36.6178 204.271L36.5421 204.328L36.4985 204.361L36.4247 204.417L36.3772 204.454L36.2551 204.551L36.2054 204.59L36.1358 204.646L36.0899 204.684L36.0169 204.744L35.9991 204.759C35.9464 204.803 35.8938 204.847 35.8417 204.892L35.809 204.92L35.7363 204.983L35.6966 205.018C35.6143 205.09 35.5329 205.163 35.4522 205.238L35.4269 205.261L35.3478 205.334L35.3264 205.355C35.2434 205.433 35.1613 205.512 35.08 205.592L35.0522 205.62L34.9752 205.696L34.9714 205.7C34.9131 205.759 34.8555 205.818 34.7983 205.877L34.7948 205.881L34.7144 205.965L34.6964 205.984C34.6149 206.071 34.5344 206.158 34.455 206.247L34.4431 206.26L34.3637 206.349L34.3567 206.357C34.276 206.449 34.1961 206.542 34.1177 206.636L34.1067 206.649C34.0263 206.746 33.947 206.843 33.869 206.942L33.8687 206.942L33.7974 207.033L33.7806 207.054C33.7075 207.148 33.6356 207.243 33.5648 207.339L33.5539 207.354L33.4844 207.449L33.4753 207.462C33.4051 207.559 33.3357 207.657 33.2677 207.757L33.2543 207.776C33.1622 207.911 33.0723 208.047 32.9846 208.185L32.9682 208.211C32.8812 208.349 32.7963 208.488 32.7139 208.628L32.6995 208.653C32.6383 208.757 32.5785 208.863 32.5198 208.969L32.5161 208.976L32.4563 209.085L32.4532 209.091C32.3951 209.198 32.3384 209.307 32.2831 209.416L32.2702 209.442C32.2155 209.55 32.1621 209.659 32.11 209.769L32.1043 209.781L32.0561 209.884L32.0507 209.896H32.0508C31.1934 211.751 30.7142 213.813 30.7142 215.981V217.895H29.9894C27.4322 217.895 25.3594 219.968 25.3594 222.525V231.349C25.3594 233.907 27.4323 235.979 29.9894 235.979H182.964C185.521 235.979 187.594 233.907 187.594 231.349V222.525C187.594 219.968 185.521 217.895 182.964 217.895H181.933V215.981C181.933 208.123 175.644 201.663 167.85 201.386C167.825 199.33 167.712 197.284 167.516 195.251C167.498 195.067 167.48 194.882 167.461 194.697C167.384 193.959 167.297 193.222 167.198 192.488C167.125 191.937 167.045 191.387 166.96 190.839C166.903 190.473 166.844 190.107 166.782 189.743C166.44 187.737 166.021 185.748 165.531 183.778C165.453 183.463 165.372 183.147 165.29 182.833C165.241 182.643 165.19 182.454 165.14 182.264C165.091 182.084 165.042 181.905 164.993 181.725C164.974 181.657 164.955 181.588 164.936 181.52C164.887 181.343 164.837 181.166 164.786 180.989C164.731 180.795 164.675 180.601 164.618 180.407C164.567 180.234 164.516 180.062 164.464 179.889C164.442 179.815 164.42 179.741 164.397 179.668C164.346 179.498 164.294 179.328 164.242 179.159C164.221 179.092 164.2 179.025 164.179 178.958C162.248 172.774 159.637 166.826 156.536 161.236L156.478 161.133C156.019 160.308 155.549 159.49 155.07 158.681C154.964 158.503 154.858 158.325 154.751 158.148C154.667 158.007 154.582 157.866 154.496 157.725C154.45 157.648 154.403 157.572 154.356 157.495C154.2 157.239 154.042 156.984 153.884 156.729C153.791 156.58 153.698 156.431 153.604 156.282C153.378 155.924 153.15 155.567 152.921 155.212C152.801 155.027 152.681 154.842 152.56 154.658C152.41 154.43 152.26 154.203 152.109 153.976C151.899 153.662 151.688 153.349 151.476 153.037C151.411 152.943 151.347 152.849 151.282 152.754C150.933 152.246 150.579 151.741 150.223 151.241C149.94 150.844 149.656 150.451 149.369 150.06C149.202 149.832 149.033 149.605 148.865 149.378C148.742 149.214 148.619 149.051 148.496 148.888C148.321 148.655 148.145 148.424 147.968 148.193C147.923 148.135 147.878 148.077 147.834 148.019C147.713 147.862 147.592 147.706 147.47 147.551C147.228 147.239 146.983 146.93 146.738 146.622C146.615 146.469 146.492 146.315 146.369 146.163L146.26 146.028C145.911 145.597 145.56 145.17 145.206 144.746L145.139 144.667C144.825 144.292 144.509 143.92 144.192 143.551C143.98 143.305 143.768 143.061 143.554 142.818C143.448 142.696 143.341 142.575 143.234 142.454C143.02 142.213 142.806 141.973 142.59 141.734L142.539 141.677C142.154 141.251 141.767 140.83 141.378 140.414L141.344 140.378C141.245 140.272 141.146 140.167 141.047 140.062C140.75 139.747 140.452 139.434 140.153 139.125C140.067 139.035 139.98 138.946 139.893 138.857C138.378 137.302 136.836 135.819 135.276 134.413C134.993 134.158 134.709 133.905 134.424 133.654C134.139 133.404 133.854 133.156 133.569 132.911C132.426 131.931 131.276 130.993 130.123 130.099C129.978 129.988 129.834 129.877 129.69 129.767C128.679 128.995 127.667 128.257 126.654 127.556C126.509 127.456 126.364 127.356 126.22 127.257C126.048 127.14 125.877 127.024 125.705 126.909C125.491 126.766 125.276 126.623 125.062 126.483C124.848 126.343 124.633 126.204 124.419 126.066C124.162 125.902 123.905 125.74 123.648 125.58C123.477 125.473 123.306 125.368 123.135 125.263C122.793 125.055 122.451 124.85 122.11 124.65C122.053 124.617 121.996 124.582 121.941 124.547C121.885 124.512 121.83 124.476 121.777 124.439L121.697 124.384L121.574 124.294L121.482 124.224L121.45 124.199L121.317 124.09L121.183 123.973C121.11 123.907 121.039 123.841 120.971 123.772L120.904 123.704L120.782 123.573L120.71 123.491C120.658 123.43 120.607 123.369 120.558 123.307L120.527 123.267C120.484 123.212 120.442 123.156 120.401 123.099L120.357 123.037C120.21 122.825 120.078 122.604 119.963 122.376L119.918 122.285C119.829 122.101 119.751 121.912 119.683 121.721L119.65 121.625C119.085 119.926 119.341 117.993 120.419 116.507C120.48 116.423 120.544 116.34 120.61 116.259L120.71 116.141L120.726 116.122C120.783 116.056 120.842 115.992 120.903 115.929L120.971 115.859C121.3 115.529 121.68 115.233 122.11 114.981C141.327 103.719 161.834 78.5697 166.751 50.0658C166.81 49.7281 166.866 49.3898 166.919 49.0511C166.948 48.8705 166.976 48.6898 167.004 48.509C167.032 48.3203 167.06 48.1316 167.088 47.9427C167.15 47.5125 167.208 47.0817 167.263 46.6502C167.292 46.426 167.319 46.2017 167.345 45.9772L167.356 45.8871C167.375 45.7266 167.393 45.5659 167.411 45.4052C175.406 45.3604 181.933 38.8059 181.933 30.8006V28.8867H182.964C185.521 28.8867 187.594 26.8136 187.594 24.2566V15.4325C187.594 12.8758 185.521 10.8028 182.964 10.8028Z" fill="#CDE8F5"/>
<path d="M182.964 10.8028H182.636L182.633 10.8027H180.501L29.9894 10.8028C27.4322 10.8028 25.3594 12.8758 25.3594 15.4329V23.9266C25.3594 26.6661 27.5802 28.887 30.3196 28.887H30.7143V30.801C30.7143 32.9695 31.1935 35.0315 32.0509 36.8865L32.0508 36.8864L32.0549 36.8953L32.1052 37.003L32.1068 37.0062C32.1604 37.1194 32.2154 37.2318 32.2717 37.3433L32.2815 37.3627C32.3573 37.5121 32.4355 37.6601 32.5161 37.8065L32.5197 37.813C32.5791 37.921 32.6401 38.0279 32.7021 38.1342L32.7124 38.1516C32.7961 38.2942 32.8821 38.4351 32.9704 38.5746L32.9824 38.5937C33.0715 38.7338 33.1628 38.8724 33.2565 39.0092L33.2648 39.0214C33.334 39.1222 33.4042 39.2221 33.4757 39.3211L33.4843 39.3331L33.5558 39.431L33.5597 39.4364C33.6332 39.536 33.7079 39.6346 33.7837 39.7322L33.7943 39.7458C33.8963 39.8766 34.0004 40.0059 34.1066 40.1332L34.1173 40.146C34.196 40.2401 34.2758 40.3331 34.3568 40.4252L34.3635 40.4329L34.4428 40.5221L34.4543 40.5349C34.5339 40.6236 34.6146 40.7112 34.6961 40.7979L34.7142 40.817L34.7946 40.9014L34.7981 40.905C34.8818 40.9922 34.9666 41.0782 35.0525 41.1634L35.0798 41.1903C35.1611 41.2704 35.2432 41.3495 35.3262 41.4277L35.3476 41.4479L35.4267 41.5215L35.452 41.5448C35.5343 41.6205 35.6175 41.6952 35.7015 41.769L35.7324 41.7962L35.8119 41.8653L35.8351 41.8851C35.8893 41.9316 35.944 41.9778 35.9989 42.0235L36.0167 42.0384L36.0938 42.1017L36.1307 42.132L36.208 42.1945L36.239 42.2192L36.381 42.3311L36.4245 42.3649L36.4983 42.4214L36.5419 42.4546L36.6176 42.5115L36.6424 42.5299C36.6951 42.569 36.7478 42.6077 36.801 42.6461L36.8373 42.6722L36.9169 42.729L36.9616 42.7603C37.0208 42.802 37.0803 42.8433 37.1402 42.884L37.1417 42.885L37.224 42.9404L37.2682 42.9701L37.3455 43.0212L37.3992 43.0562L37.5259 43.1376L37.5809 43.1725L37.6573 43.2201L37.7089 43.252L37.7862 43.2993L37.8369 43.3297L37.9667 43.4069L38.0327 43.4454L38.098 43.4831L38.1721 43.5252L38.2335 43.5599L38.354 43.6266L38.4193 43.6619L38.4904 43.7002L38.5569 43.7354L38.6412 43.7794L38.7153 43.8175L38.821 43.871L38.8819 43.9013L38.9626 43.9409L39.024 43.9708L39.1233 44.0181L39.2112 44.0593L39.2929 44.0969L39.3609 44.1277L39.4412 44.1636L39.5016 44.1903L39.6332 44.2472L39.6913 44.2717L39.7807 44.309L39.842 44.3342L39.935 44.3718L39.9887 44.3933L40.1271 44.447L40.1784 44.4666L40.2761 44.5032L40.3342 44.5247L40.4657 44.5721L40.4995 44.5841L40.6249 44.6277L40.6815 44.6468L40.7839 44.681L40.8332 44.6972L40.9787 44.7438L41.0213 44.7568L41.136 44.7919L41.1855 44.8067L41.2965 44.8392L41.3456 44.8533L41.492 44.8942L41.5384 44.9067L41.6525 44.937L41.7007 44.9496L41.8428 44.9854L41.858 44.9893L42.0102 45.0257L42.065 45.0384L42.1788 45.064L42.2224 45.0736C42.2753 45.0851 42.3285 45.0965 42.3815 45.1074L42.4039 45.1119L42.5388 45.1389L42.5913 45.1489L42.7151 45.172L42.7532 45.1789C42.8061 45.1883 42.8591 45.1975 42.9122 45.2065L42.9504 45.2128L43.075 45.2328L43.1274 45.2409L43.2586 45.2602L43.29 45.2648C43.343 45.2722 43.3963 45.2793 43.4496 45.2863L43.4958 45.2921L43.6223 45.3074L43.6642 45.3124C43.7195 45.3187 43.7747 45.3247 43.8302 45.3305L43.841 45.3315L43.9938 45.3461L44.0434 45.3506L44.1712 45.3611L44.2122 45.3644C44.2673 45.3686 44.3225 45.3725 44.378 45.3761L44.4083 45.3779L44.5456 45.3858L44.5945 45.3883L44.737 45.3946L44.7631 45.3957C44.8186 45.3978 44.8741 45.3995 44.9297 45.401L44.9742 45.402L45.1042 45.4045L45.1503 45.4051L45.2438 45.4059L45.3196 45.4062H167.328L167.41 45.4057C175.406 45.3608 181.933 38.8063 181.933 30.8011V28.8871H182.964C185.521 28.8871 187.594 26.814 187.594 24.2571V15.433C187.594 12.8758 185.521 10.8028 182.964 10.8028Z" fill="#0A1F5C"/>
<path d="M182.634 217.896H181.934V215.982C181.934 208.124 175.644 201.664 167.851 201.386C167.678 201.38 167.504 201.377 167.329 201.377H45.3202C45.2637 201.377 45.2073 201.377 45.1509 201.378L45.1047 201.379L44.9747 201.381L44.9302 201.382L44.7978 201.386L44.7636 201.388L44.7374 201.389L44.595 201.395L44.546 201.397L44.4088 201.405L44.3784 201.407C44.3231 201.411 44.2677 201.415 44.2126 201.419L44.1717 201.422L44.0438 201.433L43.9942 201.437L43.8414 201.452L43.8306 201.453C43.7753 201.459 43.72 201.465 43.6646 201.471L43.6227 201.476L43.4963 201.491L43.45 201.497C43.3967 201.504 43.3434 201.511 43.2904 201.519L43.259 201.523L43.1279 201.542L43.0754 201.551L42.9508 201.571L42.9126 201.577C42.8595 201.586 42.8066 201.595 42.7536 201.604L42.7156 201.611L42.5917 201.634L42.5392 201.645L42.4043 201.672L42.382 201.676C42.3289 201.687 42.2757 201.698 42.2228 201.71L42.1792 201.72L42.0655 201.745L42.0107 201.758L41.8584 201.794L41.8433 201.798L41.7012 201.834L41.653 201.847L41.5388 201.877L41.4925 201.889L41.346 201.93L41.297 201.944L41.1859 201.977L41.1364 201.992L41.0217 202.027L40.9792 202.04L40.8336 202.086L40.7843 202.103L40.682 202.137L40.6253 202.156L40.4999 202.199L40.4662 202.211L40.3346 202.259L40.2765 202.28L40.1788 202.317L40.1275 202.336L39.9892 202.39L39.9354 202.412L39.8413 202.45L39.7849 202.473L39.6873 202.513L39.6338 202.536L39.5019 202.593L39.4466 202.617L39.3576 202.657L39.2943 202.686L39.2041 202.728L39.1435 202.756L39.0246 202.813L38.9632 202.842L38.8824 202.882L38.8215 202.912L38.7158 202.966L38.6418 203.004L38.5567 203.048L38.4947 203.081L38.4117 203.126L38.3577 203.155L38.2339 203.223L38.1726 203.258L38.0984 203.3L38.0331 203.338L37.9629 203.379L37.8578 203.441L37.7865 203.484L37.7093 203.531L37.6576 203.563L37.5812 203.611L37.5262 203.646L37.3995 203.727L37.3455 203.762L37.2726 203.81L37.2197 203.846L37.142 203.898L37.1405 203.899C37.0806 203.94 37.0211 203.981 36.9619 204.023L36.9172 204.054L36.8376 204.111L36.8013 204.137C36.7481 204.175 36.6954 204.214 36.6428 204.253L36.6179 204.272L36.5423 204.328L36.4986 204.362L36.4248 204.418L36.3773 204.455L36.2552 204.551L36.2055 204.591L36.1359 204.647L36.09 204.684L36.017 204.745L35.9992 204.759C35.9465 204.803 35.894 204.848 35.8418 204.892L35.8091 204.92L35.7364 204.984L35.6967 205.018C35.6144 205.091 35.533 205.164 35.4523 205.238L35.427 205.262L35.3479 205.335L35.3265 205.355C35.2435 205.433 35.1614 205.513 35.0801 205.593L35.0523 205.62L34.9753 205.697L34.9715 205.701C34.9133 205.759 34.8557 205.818 34.7984 205.878L34.7949 205.882L34.7145 205.966L34.6965 205.985C34.615 206.072 34.5345 206.159 34.4552 206.248L34.4432 206.261L34.3638 206.35L34.3568 206.358C34.2761 206.45 34.1962 206.543 34.1178 206.637L34.1069 206.65C34.0265 206.746 33.9471 206.844 33.8691 206.942L33.8688 206.943L33.7975 207.034L33.7807 207.055C33.7077 207.149 33.6357 207.244 33.5649 207.34L33.554 207.355L33.4845 207.45L33.4754 207.462C33.4052 207.56 33.3358 207.658 33.2678 207.757L33.2544 207.777C33.1624 207.912 33.0724 208.048 32.9847 208.186L32.9683 208.212C32.8813 208.349 32.7964 208.488 32.714 208.629L32.6996 208.653C32.6384 208.758 32.5786 208.864 32.5199 208.97L32.5162 208.977L32.4565 209.086L32.4533 209.092C32.3953 209.199 32.3387 209.308 32.2832 209.417L32.2703 209.442C32.2156 209.551 32.1622 209.66 32.1101 209.77L32.1044 209.782L32.0562 209.885L32.0508 209.896H32.0509C31.1935 211.751 30.7143 213.813 30.7143 215.982V217.896H30.3197C27.5802 217.896 25.3594 220.117 25.3594 222.856V231.35C25.3594 233.907 27.4323 235.98 29.9894 235.98H182.633C185.373 235.98 187.594 233.759 187.594 231.02V222.856C187.595 220.117 185.374 217.896 182.634 217.896Z" fill="#0A1F5C"/>
<path d="M132.898 167.493C130.899 166.893 128.98 166.261 127.119 165.6C126.894 165.52 126.67 165.439 126.446 165.358C126.109 165.237 125.773 165.114 125.44 164.99C119.638 162.835 114.339 160.392 108.802 157.742C108.421 157.559 108.039 157.376 107.655 157.192C107.272 157.007 106.887 156.822 106.501 156.636C105.921 156.357 105.338 156.075 104.751 155.792C102.988 154.942 101.185 154.074 99.3204 153.191C96.5465 152.003 93.2702 152.341 90.4953 153.344C89.6214 153.66 88.7904 154.058 87.9854 154.504L87.9858 154.504C86.5568 155.297 85.2103 156.245 83.8557 157.162C77.9647 161.152 72.2621 165.36 67.6687 170.856C62.9816 176.356 59.2687 182.758 57.1169 189.672C56.4464 191.826 55.8005 194.199 55.5122 196.573C55.3153 198.196 55.2855 199.82 55.5292 201.376H153.465C155.006 186.761 145.233 171.604 132.898 167.493Z" fill="#EDD5A1"/>
<path d="M132.898 167.493C130.899 166.893 128.98 166.261 127.119 165.6C126.894 165.52 126.67 165.439 126.446 165.358C126.109 165.237 125.773 165.114 125.44 164.99C119.638 162.835 114.339 160.392 108.802 157.742C108.421 157.559 108.039 157.376 107.656 157.192C107.272 157.007 106.887 156.822 106.501 156.636C105.922 156.357 105.338 156.075 104.751 155.792C102.988 154.942 101.185 154.074 99.3205 153.191C96.5466 152.003 93.2703 152.341 90.4954 153.344C89.6215 153.66 88.7905 154.058 87.9855 154.504C79.533 165.524 72.9201 178.612 70.3314 192.671C69.7809 195.661 67.1834 197.803 64.1892 197.803C64.0331 197.803 63.8754 197.798 63.7174 197.786L58.1311 197.367C57.1739 197.295 56.2882 197.013 55.5122 196.573C55.3153 198.196 55.2855 199.82 55.5292 201.376H153.465C155.007 186.761 145.233 171.604 132.898 167.493Z" fill="#DDB34A"/>
<path d="M136.93 93.4092C139.883 90.1255 142.588 86.5144 144.892 82.6645C144.56 82.4141 144.222 82.172 143.879 81.938C133.12 74.5998 116.979 75.2402 104.609 80.7035C103.679 81.1145 102.283 80.7035 101.353 80.7035H101.352C95.8957 78.1886 89.4721 77.599 83.3761 78.7693L83.3759 78.7691C78.4324 79.718 73.7051 81.8243 69.8828 85.0003C74.5751 92.0635 82.0903 99.4198 89.2433 104.808H89.2434C92.3591 107.155 95.406 109.129 98.1207 110.542C99.6921 111.36 99.4099 114.929 99.3131 116.316C99.1624 118.474 100.614 120.375 102.908 120.72C103.938 120.875 105.201 120.772 105.784 121.635C106.187 122.23 106.053 123.028 106.246 123.72C106.405 124.294 106.817 124.78 107.336 125.071C107.682 125.264 108.074 125.371 108.471 125.358C108.884 125.345 109.298 125.219 109.703 125.294C110.177 125.382 110.675 125.733 111.092 125.492C111.267 125.391 111.373 125.207 111.472 125.031C111.528 124.931 111.585 124.83 111.642 124.729C111.873 124.317 112.103 123.905 112.334 123.494C112.714 122.816 113.097 122.132 113.319 121.387C113.507 120.759 113.576 120.103 113.644 119.451C113.833 117.641 113.927 115.839 114.086 114.031C114.103 113.837 114.119 113.608 114.141 113.359C114.235 112.331 114.441 110.982 115.291 110.542C119.372 108.429 124.814 104.547 129.679 100.378C132.386 98.059 134.914 95.6508 136.93 93.4092Z" fill="#EDD5A1"/>
<path d="M136.929 93.4092C139.882 90.1255 142.587 86.5144 144.891 82.6645C144.559 82.4141 144.221 82.172 143.878 81.938C133.119 74.5998 116.978 75.2402 104.608 80.7035C103.678 81.1145 102.282 80.7035 101.352 80.7035H101.351C95.8947 78.1886 89.4711 77.599 83.375 78.7693C86.5528 83.8913 90.1263 88.6683 93.9259 92.9986C97.8326 97.4506 94.9645 104.334 89.2424 104.808C92.3581 107.155 95.4049 109.129 98.1197 110.542C99.6911 111.36 99.4089 114.929 99.3121 116.316C99.1613 118.474 100.613 120.375 102.907 120.72C103.937 120.875 105.2 120.772 105.783 121.635C106.186 122.23 106.052 123.028 106.244 123.72C106.404 124.294 106.816 124.78 107.335 125.071C107.68 125.264 108.073 125.371 108.47 125.358C108.883 125.345 109.297 125.219 109.702 125.294C110.176 125.382 110.674 125.733 111.091 125.492C111.266 125.391 111.372 125.207 111.471 125.031C111.527 124.931 111.584 124.83 111.641 124.729C111.871 124.317 112.102 123.905 112.333 123.494C112.713 122.816 113.096 122.132 113.318 121.387C113.506 120.759 113.575 120.103 113.643 119.451C113.832 117.641 113.926 115.839 114.085 114.031C114.102 113.837 114.118 113.608 114.14 113.359C114.234 112.331 114.44 110.982 115.29 110.542C119.371 108.429 124.813 104.547 129.678 100.378C132.385 98.059 134.913 95.6508 136.929 93.4092Z" fill="#DDB34A"/>
<path d="M44.9736 201.381L45.1036 201.378L45.1497 201.378C45.2061 201.377 45.2625 201.377 45.3191 201.377H55.5312C55.2875 199.821 55.3173 198.197 55.5142 196.574C53.2022 195.262 51.8636 192.539 52.4992 189.75C57.369 168.385 71.3553 149.503 86.5408 137.075C87.6657 136.155 89.0696 135.655 90.5135 135.655C90.669 135.655 90.8253 135.661 90.9813 135.673C96.2125 136.065 98.6819 142.352 95.0835 146.17C92.6151 148.788 90.2368 151.573 87.9878 154.505L87.9874 154.505C88.7922 154.058 89.6234 153.66 90.4972 153.345C93.2721 152.342 96.5484 152.003 99.3224 153.192C102.637 154.762 105.757 156.284 108.804 157.742C114.341 160.393 119.64 162.836 125.442 164.99C125.775 165.114 126.111 165.237 126.448 165.359C126.672 165.44 126.896 165.521 127.121 165.601C128.982 166.262 130.901 166.894 132.9 167.494C145.235 171.605 155.009 186.762 153.467 201.377H157.252C156.848 168.239 133.441 137.57 111.643 124.728C111.586 124.829 111.529 124.93 111.473 125.031C111.374 125.207 111.267 125.391 111.093 125.492C110.675 125.733 110.178 125.381 109.704 125.293C109.298 125.218 108.885 125.344 108.472 125.358C108.075 125.37 107.682 125.264 107.337 125.07C106.818 124.779 106.406 124.293 106.246 123.719C106.054 123.027 106.188 122.229 105.785 121.634C105.202 120.771 103.939 120.874 102.909 120.719C100.615 120.374 99.1632 118.474 99.314 116.315C99.4108 114.928 99.6929 111.359 98.1215 110.541C95.4069 109.128 92.36 107.154 89.2443 104.807C89.0377 104.825 88.8277 104.833 88.6138 104.833C86.8501 104.833 85.1483 104.183 83.8408 103C71.6315 91.9516 60.406 76.1616 54.8467 58.438C53.5834 54.4102 56.5952 50.3121 60.8165 50.3121H66.6222C69.4097 50.3121 71.8581 52.1581 72.6253 54.8379C75.057 63.3273 78.8081 71.4045 83.3769 78.7685L83.377 78.7687C89.4731 77.5984 95.8966 78.188 101.353 80.7029H101.354C102.284 80.7029 103.68 81.1138 104.61 80.7029C116.98 75.2395 133.121 74.5991 143.88 81.9373C150.535 70.9878 155.371 58.4834 156.812 45.4066H45.3192L45.2434 45.4062C48.6478 75.8046 70.7003 103.11 90.8459 114.982C94.5048 117.138 94.5048 122.495 90.8459 124.651C69.1299 137.448 45.198 168.179 44.7969 201.386L44.9293 201.382L44.9736 201.381Z" fill="#E0F2FA"/>
<path d="M132.9 167.494C130.901 166.894 128.982 166.262 127.121 165.601C126.896 165.521 126.671 165.441 126.448 165.36C126.111 165.238 125.775 165.115 125.441 164.991C119.64 162.837 114.34 160.393 108.804 157.743C105.756 156.284 102.637 154.763 99.3222 153.193C96.7304 152.082 93.4802 152.3 90.6157 153.31C90.601 156.425 90.0103 161.283 91.2388 161.898C95.3452 163.793 98.6493 165.367 101.396 167.681L101.509 167.635C101.596 167.742 101.673 167.856 101.739 167.977C104.24 170.179 106.272 173.053 108.027 177.443C110.514 184.904 122.329 178.686 129.168 179.93C136.008 181.174 136.63 192.988 135.387 200.449C135.332 200.76 135.271 201.069 135.204 201.377H153.466C155.008 186.762 145.235 171.606 132.9 167.494Z" fill="#C39E32"/>
<path d="M104.608 80.7035C103.678 81.1145 102.282 80.7035 101.352 80.7035C109.3 83.9799 117.098 88.5854 125.346 91.2616C125.44 91.2919 125.533 91.3222 125.627 91.352C126.003 91.4716 126.379 91.5873 126.756 91.6985C127.039 91.7818 127.323 91.8628 127.607 91.9411C127.986 92.0456 128.366 92.1454 128.747 92.2404C128.937 92.2879 129.128 92.3341 129.319 92.3792C129.51 92.4241 129.702 92.4679 129.893 92.5104C130.085 92.5528 130.277 92.5939 130.469 92.6337C130.965 92.7365 131.464 92.83 131.964 92.9143C132.127 92.9417 132.29 92.968 132.452 92.9933C133.576 93.1677 134.71 93.2928 135.857 93.3614C136.213 93.3827 136.57 93.3989 136.929 93.4091C139.882 90.1254 142.587 86.5143 144.891 82.6644C144.559 82.414 144.221 82.1719 143.878 81.9379C133.119 74.5998 116.978 75.2402 104.608 80.7035Z" fill="#C39E32"/>
<path d="M182.636 10.8028L182.633 10.8027H180.502V16.9821C180.502 19.7216 178.281 21.9425 175.541 21.9425H25.3594V23.9266C25.3594 26.6661 27.5802 28.887 30.3196 28.887H173.694C171.562 34.3222 166.256 38.1967 160.088 38.1967H38.0795C35.9331 38.1967 33.8912 37.7274 32.0509 36.8864L32.0508 36.8863L32.0549 36.8952L32.1052 37.0029L32.1068 37.0061C32.1604 37.1193 32.2154 37.2317 32.2717 37.3432L32.2815 37.3626C32.3573 37.512 32.4355 37.66 32.5161 37.8064L32.5197 37.8129C32.5791 37.9208 32.6401 38.0278 32.7021 38.1341L32.7124 38.1515C32.7961 38.2941 32.8821 38.435 32.9704 38.5745L32.9824 38.5936C33.0715 38.7337 33.1628 38.8723 33.2565 39.0091L33.2648 39.0213C33.334 39.1221 33.4042 39.222 33.4757 39.321L33.4843 39.333L33.5558 39.4309L33.5597 39.4363C33.6332 39.5359 33.7079 39.6345 33.7837 39.732L33.7943 39.7457C33.8963 39.8765 34.0004 40.0058 34.1066 40.1331L34.1173 40.1459C34.196 40.24 34.2758 40.333 34.3568 40.4251L34.3635 40.4328L34.4428 40.522L34.4543 40.5348C34.5339 40.6235 34.6146 40.7111 34.6961 40.7978L34.7142 40.8169L34.7946 40.9013L34.7981 40.9049C34.8818 40.9921 34.9666 41.0781 35.0525 41.1633L35.0798 41.1902C35.161 41.2703 35.2432 41.3494 35.3262 41.4276L35.3476 41.4478L35.4267 41.5214L35.452 41.5447C35.5343 41.6204 35.6175 41.6951 35.7015 41.7689L35.7324 41.7961L35.8119 41.8652L35.8351 41.885C35.8893 41.9315 35.944 41.9777 35.9989 42.0234L36.0167 42.0383L36.0938 42.1016L36.1307 42.1319L36.208 42.1944L36.239 42.2191L36.381 42.3309L36.4245 42.3648L36.4983 42.4213L36.5419 42.4545L36.6176 42.5114L36.6424 42.5298C36.6951 42.5689 36.7478 42.6076 36.801 42.646L36.8373 42.6721L36.9169 42.7289L36.9616 42.7602C37.0208 42.8019 37.0803 42.8432 37.1402 42.8839L37.1417 42.8849L37.224 42.9403L37.2682 42.9699L37.3455 43.0211L37.3992 43.0561L37.5259 43.1375L37.5809 43.1724L37.6573 43.22L37.7089 43.2519L37.7862 43.2992L37.8369 43.3296L37.9667 43.4068L38.0327 43.4453L38.098 43.4829L38.1721 43.5251L38.2335 43.5598L38.354 43.6265L38.4193 43.6618L38.4904 43.7001L38.5569 43.7353L38.6412 43.7793L38.7153 43.8174L38.821 43.8709L38.8819 43.9012L38.9626 43.9408L39.024 43.9706L39.1233 44.018L39.2112 44.0592L39.2929 44.0968L39.3609 44.1276L39.4411 44.1634L39.5016 44.1902L39.6332 44.2471L39.6913 44.2716L39.7807 44.3089L39.842 44.3341L39.935 44.3717L39.9887 44.3932L40.127 44.4469L40.1784 44.4665L40.2761 44.5031L40.3342 44.5246L40.4657 44.572L40.4994 44.584L40.6249 44.6276L40.6815 44.6467L40.7839 44.6809L40.8332 44.6971L40.9787 44.7437L41.0213 44.7567L41.136 44.7917L41.1855 44.8065L41.2966 44.8391L41.3456 44.8532L41.492 44.8941L41.5384 44.9066L41.6525 44.9369L41.7007 44.9495L41.8428 44.9853L41.858 44.9892L42.0102 45.0256L42.065 45.0382L42.1788 45.0639L42.2224 45.0735C42.2753 45.085 42.3285 45.0964 42.3815 45.1073L42.4039 45.1118L42.5388 45.1387L42.5913 45.1488L42.7151 45.1719L42.7532 45.1788C42.8061 45.1882 42.8591 45.1974 42.9122 45.2064L42.9504 45.2127L43.075 45.2327L43.1274 45.2408L43.2586 45.2601L43.29 45.2646C43.343 45.2721 43.3963 45.2792 43.4496 45.2861L43.4958 45.292L43.6223 45.3073L43.6642 45.3123C43.7195 45.3186 43.7747 45.3246 43.8302 45.3303L43.841 45.3314L43.9938 45.346L44.0434 45.3504L44.1712 45.361L44.2122 45.3643C44.2673 45.3685 44.3225 45.3724 44.378 45.376L44.4083 45.3778L44.5456 45.3857L44.5945 45.3882L44.737 45.3945L44.7631 45.3956C44.8186 45.3977 44.8741 45.3994 44.9297 45.4009L44.9742 45.4019L45.1042 45.4044L45.1503 45.405L45.2438 45.4058L45.3196 45.4061H167.328L167.41 45.4056H167.41C175.406 45.3607 181.933 38.8062 181.933 30.801V28.887H182.634C185.373 28.887 187.594 26.6661 187.594 23.9266V15.7631C187.594 13.0246 185.374 10.8044 182.636 10.8028Z" fill="#003366"/>
<path d="M167.328 201.377H45.3195C45.2629 201.377 45.2065 201.377 45.1501 201.378L45.104 201.379L44.974 201.381L44.9294 201.382L44.7971 201.386L44.7628 201.388L44.7366 201.389L44.5942 201.395L44.5453 201.397L44.408 201.405L44.3776 201.407C44.3223 201.411 44.267 201.415 44.2119 201.419L44.1709 201.422L44.0431 201.433L43.9935 201.437L43.8407 201.452L43.8299 201.453C43.7745 201.459 43.7192 201.465 43.6639 201.471L43.6219 201.476L43.4955 201.491L43.4492 201.497C43.396 201.504 43.3427 201.511 43.2896 201.519L43.2583 201.523L43.1271 201.542L43.0747 201.551L42.9501 201.571L42.9118 201.577C42.8588 201.586 42.8058 201.595 42.7529 201.604L42.7148 201.611L42.591 201.634L42.5385 201.645L42.4036 201.672L42.3812 201.676C42.3282 201.687 42.275 201.698 42.222 201.71L42.1785 201.72L42.0647 201.745L42.0099 201.758L41.8576 201.794L41.8425 201.798L41.7004 201.834L41.6522 201.847L41.5381 201.877L41.4917 201.889L41.3453 201.93L41.2962 201.944L41.1851 201.977L41.1356 201.992L41.021 202.027L40.9784 202.04L40.8328 202.086L40.7836 202.103L40.6812 202.137L40.6246 202.156L40.4991 202.199L40.4654 202.211L40.3339 202.259L40.2758 202.28L40.1781 202.317L40.1267 202.336L39.9884 202.39L39.9347 202.412L39.8406 202.45L39.7842 202.473L39.6866 202.513L39.6331 202.536L39.5011 202.593L39.4458 202.617L39.3569 202.657L39.2935 202.686L39.2033 202.728L39.1428 202.756L39.0238 202.813L38.9624 202.842L38.8817 202.882L38.8207 202.912L38.715 202.966L38.641 203.004L38.556 203.048L38.4939 203.081L38.4109 203.126L38.3569 203.155L38.2332 203.223L38.1718 203.258L38.0977 203.3L38.0324 203.338L37.9621 203.379L37.857 203.441L37.7858 203.484L37.7085 203.531L37.6569 203.563L37.5805 203.611L37.5254 203.646L37.3988 203.727L37.3448 203.762L37.2718 203.81L37.219 203.846L37.1413 203.898L37.1398 203.899C37.0799 203.94 37.0203 203.981 36.9611 204.023L36.9165 204.054L36.8368 204.111L36.8005 204.137C36.7474 204.175 36.6946 204.214 36.642 204.253L36.6171 204.272L36.5415 204.328L36.4978 204.362L36.424 204.418L36.3766 204.455L36.2545 204.551L36.2048 204.591L36.1352 204.647L36.0892 204.684L36.0163 204.745L35.9985 204.759C35.9457 204.803 35.8932 204.848 35.841 204.892L35.8084 204.92L35.7356 204.984L35.696 205.018C35.6136 205.091 35.5323 205.164 35.4515 205.238L35.4262 205.262L35.3471 205.335L35.3257 205.355C35.2427 205.433 35.1606 205.513 35.0794 205.593L35.0516 205.62L34.9745 205.697L34.9707 205.701C34.9125 205.759 34.8549 205.818 34.7976 205.878L34.7942 205.882L34.7138 205.966L34.6957 205.985C34.6142 206.072 34.5337 206.159 34.4544 206.248L34.4424 206.261L34.3631 206.35L34.3561 206.358C34.2753 206.45 34.1955 206.543 34.117 206.637L34.1061 206.65C34.0257 206.746 33.9464 206.844 33.8684 206.942L33.868 206.943L33.7967 207.034L33.78 207.055C33.7069 207.149 33.6349 207.244 33.5641 207.34L33.5532 207.355L33.4837 207.45L33.4747 207.462C33.4044 207.56 33.335 207.658 33.2671 207.757L33.2537 207.777C33.1616 207.912 33.0717 208.048 32.9839 208.186L32.9675 208.212C32.8805 208.349 32.7957 208.488 32.7132 208.629L32.6988 208.653C32.6377 208.758 32.5778 208.864 32.5191 208.97L32.5155 208.977L32.4557 209.086L32.4526 209.092C32.3945 209.199 32.3379 209.308 32.2825 209.417L32.2695 209.442C32.2148 209.551 32.1614 209.66 32.1093 209.77L32.1036 209.782L32.0554 209.885L32.05 209.896H32.0501C33.8904 209.055 35.9324 208.586 38.0787 208.586H160.087C166.255 208.586 171.561 212.461 173.693 217.896H30.3196C27.5802 217.896 25.3594 220.117 25.3594 222.856V224.84H175.541C178.281 224.84 180.502 227.061 180.502 229.801V235.98H182.633C185.373 235.98 187.594 233.759 187.594 231.02V222.856C187.594 220.117 185.373 217.896 182.633 217.896H181.933V215.982C181.933 208.124 175.644 201.664 167.85 201.386C167.677 201.38 167.503 201.377 167.328 201.377Z" fill="#003366"/>
<path d="M105.265 128.691C105.308 127.994 104.567 126.894 104.058 127.373C103.809 127.608 104.066 128.744 104.066 128.744C104.461 128.832 104.88 128.814 105.265 128.691Z" fill="#DDB34A"/>
<path d="M109.586 143.663C109.752 143.631 109.861 143.46 109.828 143.294C109.697 142.629 109.084 141.864 108.644 142.277C108.394 142.512 108.651 143.649 108.651 143.649C108.958 143.717 109.278 143.721 109.586 143.663Z" fill="#DDB34A"/>
<path d="M99.9257 156.089C99.6758 156.324 99.9327 157.461 99.9327 157.461C100.328 157.549 100.747 157.531 101.133 157.408C101.175 156.711 100.435 155.611 99.9257 156.089Z" fill="#DDB34A"/>
<path d="M108.441 162.545C108.178 162.326 107.081 162.72 107.081 162.72C107.042 163.123 107.112 163.537 107.281 163.904C107.978 163.861 108.978 162.991 108.441 162.545Z" fill="#DDB34A"/>
<path d="M102.427 138.453C102.478 138.872 102.944 139.118 103.303 138.897C103.791 138.596 104.151 138.087 103.781 137.779C103.627 137.651 103.19 137.732 102.852 137.822C102.579 137.895 102.393 138.16 102.426 138.441L102.427 138.453Z" fill="#DDB34A"/>
<path d="M107.773 133.417C107.952 133.369 108.012 133.139 107.985 132.955C107.958 132.771 107.877 132.592 107.9 132.407C107.926 132.2 108.076 132.034 108.203 131.868C108.478 131.509 108.869 130.21 108.002 130.209C107.403 130.208 107.644 131.246 107.495 131.677C107.421 131.892 107.289 132.084 107.225 132.302C107.136 132.605 107.192 132.948 107.372 133.207C107.464 133.34 107.618 133.459 107.773 133.417Z" fill="#DDB34A"/>
<path d="M108.678 153.527C108.079 153.527 108.32 154.564 108.171 154.996C108.097 155.21 107.965 155.402 107.901 155.62C107.812 155.923 107.868 156.266 108.048 156.526C108.14 156.658 108.293 156.777 108.449 156.735C108.628 156.687 108.688 156.457 108.661 156.273C108.634 156.089 108.553 155.91 108.576 155.725C108.601 155.518 108.752 155.352 108.879 155.187C109.154 154.827 109.545 153.528 108.678 153.527Z" fill="#DDB34A"/>
<path d="M104.523 149.874C104.702 149.825 104.762 149.596 104.735 149.412C104.708 149.228 104.627 149.049 104.65 148.864C104.676 148.657 104.826 148.491 104.953 148.325C105.228 147.966 105.619 146.667 104.752 146.666C104.153 146.665 104.394 147.703 104.245 148.134C104.171 148.349 104.039 148.541 103.975 148.759C103.886 149.062 103.942 149.405 104.122 149.664C104.214 149.797 104.367 149.916 104.523 149.874Z" fill="#DDB34A"/>
<path d="M69.8825 85.0001C73.7048 81.8241 78.4321 79.7179 83.3757 78.7689C78.8069 71.4049 75.0558 63.3278 72.6241 54.8383C71.8568 52.1585 69.4084 50.3125 66.6209 50.3125H60.8153C56.5941 50.3125 53.5821 54.4107 54.8454 58.4385C60.4047 76.162 71.6303 91.9519 83.8396 103C85.1471 104.184 86.8488 104.834 88.6126 104.834C88.8264 104.834 89.0363 104.825 89.2429 104.808C82.0901 99.4196 74.5749 92.0633 69.8825 85.0001Z" fill="#EEF8FC"/>
<path d="M57.1174 189.674C59.2691 182.76 62.9821 176.358 67.6692 170.858C72.2626 165.362 77.9652 161.154 83.8562 157.164C85.2108 156.247 86.5573 155.299 87.9863 154.506C90.2352 151.574 92.6137 148.789 95.082 146.171C98.6803 142.353 96.2111 136.066 90.9799 135.674C90.8237 135.662 90.6675 135.656 90.5121 135.656C89.0682 135.656 87.6643 136.155 86.5393 137.076C71.3539 149.503 57.3675 168.385 52.4978 189.751C51.8621 192.54 53.2008 195.263 55.5128 196.575C55.801 194.2 56.4469 191.828 57.1174 189.674Z" fill="#EEF8FC"/>
</svg>
