<svg width="186" height="186" viewBox="0 0 186 186" fill="none" xmlns="http://www.w3.org/2000/svg">
<path d="M169.097 92.9978C169.097 114.007 160.565 133.05 146.809 146.805C133.054 160.561 114.011 169.093 93.0014 169.093C71.9922 169.093 52.9496 160.561 39.1939 146.805C25.4383 133.05 16.9062 114.007 16.9062 92.9978C16.9062 71.9885 25.4383 52.9459 39.1939 39.1903C52.9496 25.4344 71.9922 16.9023 93.0014 16.9023C114.011 16.9023 133.053 25.4344 146.809 39.1903C160.565 52.9461 169.097 71.9883 169.097 92.9978Z" fill="#FF270E"/>
<path d="M129.993 69.4254L116.576 56.0078L93.0025 79.5809L69.4293 56.0078L56.0117 69.4254L79.5849 92.9986L56.0117 116.572L69.4293 129.99L93.0025 106.416L116.576 129.99L129.993 116.572L106.42 92.9986L129.993 69.4254Z" fill="white"/>
<path d="M93.0004 186C68.1593 186 44.8048 176.327 27.2398 158.76C26.2323 157.753 25.2468 156.722 24.2856 155.669C23.7307 155.061 23.7744 154.119 24.3813 153.565C24.9898 153.008 25.9316 153.054 26.4851 153.66C27.4162 154.68 28.3698 155.68 29.3455 156.655C46.3489 173.658 68.9555 183.022 93.0006 183.022C108.666 183.022 124.104 178.928 137.644 171.183C138.36 170.774 139.269 171.023 139.677 171.736C140.085 172.451 139.837 173.36 139.124 173.769C125.133 181.771 109.184 186 93.0004 186ZM161.664 154.983C161.315 154.983 160.963 154.861 160.68 154.612C160.063 154.068 160.004 153.127 160.548 152.509C175.041 136.065 183.022 114.93 183.022 92.9997V92.731C183.022 91.9082 183.689 91.2417 184.511 91.2417C185.334 91.2417 186.001 91.9082 186.001 92.731V92.9997C186.001 115.656 177.755 137.49 162.782 154.479C162.488 154.813 162.077 154.983 161.664 154.983ZM1.48924 94.5561C0.667357 94.5561 0 93.9567 0 93.1339C0 93.1248 0.000940302 92.9803 0.000940302 92.9709C0.000940302 70.394 8.21484 48.5968 23.1287 31.6237C23.6719 31.0058 24.613 30.9453 25.2307 31.4876C25.8485 32.0308 25.909 32.9717 25.3668 33.5896C10.9298 50.0188 2.97942 71.1177 2.97942 92.9994C2.97942 93.8222 2.31182 94.5561 1.48924 94.5561ZM160.525 32.7259C160.122 32.7259 159.72 32.563 159.426 32.2413C158.524 31.2558 157.6 30.2903 156.656 29.3452C139.652 12.3425 117.046 2.97848 93.0004 2.97848C92.9994 2.97848 92.9971 2.97848 92.9961 2.97848C77.2882 2.97848 61.8141 7.09466 48.2434 14.8828C47.5298 15.2908 46.619 15.045 46.21 14.3322C45.8011 13.6186 46.0471 12.7087 46.7607 12.2988C60.7805 4.25296 76.7691 0 92.9952 0C92.9978 0 92.9987 0 93.0001 0C117.841 0 141.196 9.67375 158.761 27.2398C159.737 28.2152 160.692 29.2124 161.624 30.2318C162.179 30.8387 162.137 31.7808 161.53 32.3356C161.244 32.5968 160.884 32.7259 160.525 32.7259Z" fill="#FF270E"/>
</svg>
