<svg width="186" height="186" viewBox="0 0 186 186" fill="none" xmlns="http://www.w3.org/2000/svg">
<path d="M169.093 93.0017C169.093 114.011 160.561 133.054 146.806 146.809C133.05 160.565 114.007 169.097 92.9978 169.097C71.9885 169.097 52.9458 160.565 39.1901 146.809C25.4345 133.054 16.9023 114.011 16.9023 93.0017C16.9023 71.9921 25.4345 52.9497 39.1901 39.194C52.9458 25.4384 71.9885 16.9062 92.9978 16.9062C114.007 16.9062 133.05 25.4384 146.806 39.194C160.561 52.9497 169.093 71.9921 169.093 93.0017Z" fill="#64D90B"/>
<g opacity="0.3">
<path d="M90.9551 91.2773L42.2034 140.029L22.902 120.728L9.48438 134.146L42.2034 166.865L104.373 104.695L90.9551 91.2773Z" fill="white"/>
<path d="M92.1191 90.1133L43.3674 138.865L24.0659 119.564L10.6484 132.982L43.3674 165.701L105.537 103.531L92.1191 90.1133Z" fill="#F9FCF7"/>
<path d="M93.2832 88.9492L44.5313 137.701L25.2299 118.4L11.8125 131.818L44.5313 164.536L106.701 102.367L93.2832 88.9492Z" fill="#F3F8EF"/>
<path d="M94.4434 87.7891L45.6914 136.541L26.3901 117.24L12.9727 130.658L45.6914 163.377L107.861 101.207L94.4434 87.7891Z" fill="#EDF5E6"/>
<path d="M95.6074 86.625L46.8555 135.377L27.5541 116.076L14.1367 129.493L46.8555 162.213L109.026 100.043L95.6074 86.625Z" fill="#E7F2DE"/>
<path d="M96.7715 85.4609L48.0195 134.213L28.7182 114.912L15.3008 128.329L48.0195 161.048L110.19 98.8786L96.7715 85.4609Z" fill="#E1EFD6"/>
<path d="M97.9358 84.2969L49.1839 133.049L29.8825 113.748L16.4648 127.165L49.1839 159.884L111.354 97.7145L97.9358 84.2969Z" fill="#DAEBCE"/>
<path d="M99.0998 83.1328L50.3479 131.885L31.0466 112.584L17.6289 126.001L50.3479 158.72L112.518 96.5505L99.0998 83.1328Z" fill="#D4E8C5"/>
<path d="M100.264 81.9688L51.512 130.721L32.2106 111.42L18.793 124.837L51.512 157.556L113.682 95.3864L100.264 81.9688Z" fill="#CEE5BD"/>
<path d="M101.428 80.8047L52.676 129.557L33.3747 110.256L19.957 123.673L52.676 156.392L114.846 94.2223L101.428 80.8047Z" fill="#C8E1B5"/>
<path d="M102.592 79.6406L53.8401 128.393L34.5388 109.091L21.1211 122.509L53.8401 155.228L116.01 93.0583L102.592 79.6406Z" fill="#C2DEAD"/>
<path d="M103.756 78.4805L55.0041 127.232L35.7028 107.931L22.2852 121.349L55.0041 154.068L117.174 91.8979L103.756 78.4805Z" fill="#BCDBA5"/>
<path d="M104.916 77.3164L56.1643 126.068L36.863 106.767L23.4453 120.185L56.1643 152.904L118.334 90.7341L104.916 77.3164Z" fill="#B6D89C"/>
<path d="M106.08 76.1523L57.3284 124.904L38.027 105.603L24.6094 119.021L57.3284 151.74L119.498 89.57L106.08 76.1523Z" fill="#B0D494"/>
<path d="M107.244 74.9883L58.4924 123.74L39.1911 104.439L25.7734 117.857L58.4924 150.576L120.662 88.4057L107.244 74.9883Z" fill="#AAD18C"/>
<path d="M108.408 73.8242L59.6565 122.576L40.3552 103.275L26.9375 116.692L59.6565 149.411L121.826 87.2419L108.408 73.8242Z" fill="#A4CE84"/>
<path d="M109.573 72.6602L60.8206 121.412L41.5192 102.111L28.1016 115.528L60.8206 148.247L122.99 86.0778L109.573 72.6602Z" fill="#9DCA7B"/>
<path d="M110.737 71.4961L61.9846 120.248L42.6833 100.947L29.2656 114.364L61.9846 147.083L124.154 84.9138L110.737 71.4961Z" fill="#97C773"/>
<path d="M111.901 70.332L63.1487 119.084L43.8474 99.7826L30.4297 113.2L63.1487 145.919L125.319 83.7497L111.901 70.332Z" fill="#91C46B"/>
<path d="M113.065 69.168L64.3127 117.92L45.0114 98.6186L31.5938 112.036L64.3127 144.755L126.483 82.5856L113.065 69.168Z" fill="#8BC063"/>
<path d="M114.229 68.0078L65.4768 116.76L46.1755 97.4584L32.7578 110.876L65.4768 143.595L127.647 81.4255L114.229 68.0078Z" fill="#85BD5A"/>
<path d="M115.389 66.8438L66.637 115.596L47.3356 96.2943L33.918 109.712L66.637 142.431L128.807 80.2614L115.389 66.8438Z" fill="#7FBA52"/>
<path d="M116.553 65.6797L67.801 114.432L48.4997 95.1303L35.082 108.548L67.801 141.267L129.971 79.0974L116.553 65.6797Z" fill="#79B74A"/>
<path d="M117.717 64.5156L68.9651 113.268L49.6638 93.9665L36.2461 107.384L68.9651 140.103L131.135 77.9333L117.717 64.5156Z" fill="#73B342"/>
<path d="M118.881 63.3516L70.1292 112.104L50.8278 92.8024L37.4102 106.22L70.1292 138.939L132.299 76.7692L118.881 63.3516Z" fill="#6DB03A"/>
<path d="M120.045 62.1875L71.2932 110.939L51.9919 91.6383L38.5742 105.056L71.2932 137.775L133.463 75.6052L120.045 62.1875Z" fill="#67AD31"/>
<path d="M121.209 61.0234L72.4573 109.775L53.156 90.4743L39.7383 103.892L72.4573 136.611L134.627 74.4411L121.209 61.0234Z" fill="#60A929"/>
<path d="M122.373 59.8594L73.6211 108.611L54.32 89.3102L40.9023 102.728L73.6211 135.447L135.791 73.277L122.373 59.8594Z" fill="#5AA621"/>
<path d="M123.537 58.6953L74.7852 107.447L55.4838 88.1461L42.0664 101.564L74.7852 134.283L136.955 72.113L123.537 58.6953Z" fill="#54A319"/>
<path d="M124.697 57.5352L75.9453 106.287L56.644 86.986L43.2266 100.404L75.9453 133.123L138.115 70.9528L124.697 57.5352Z" fill="#4EA010"/>
<path d="M125.861 56.3711L77.1094 105.123L57.808 85.8219L44.3906 99.2396L77.1094 131.959L139.279 69.7888L125.861 56.3711Z" fill="#489C08"/>
<path d="M127.025 55.207L78.2734 103.959L58.9721 84.6579L45.5547 98.0755L78.2734 130.795L140.444 68.6247L127.025 55.207Z" fill="#429900"/>
</g>
<path d="M127.025 55.207L78.2734 103.959L58.9721 84.6579L45.5547 98.0755L78.2734 130.795L140.444 68.6247L127.025 55.207Z" fill="white"/>
<path d="M93.0051 186C93.0025 186 93.0016 186 93 186C68.1588 186 44.8043 176.327 27.2391 158.761C26.231 157.752 25.2452 156.721 24.284 155.668C23.7291 155.06 23.7728 154.118 24.3797 153.564C24.9866 153.009 25.9294 153.053 26.4835 153.66C27.4144 154.68 28.3682 155.679 29.3446 156.655C46.3481 173.658 68.9548 183.022 93 183.022C93.0009 183.022 93.0034 183.022 93.0042 183.022C108.668 183.022 124.102 178.929 137.643 171.184C138.357 170.775 139.266 171.025 139.675 171.737C140.083 172.452 139.836 173.361 139.122 173.77C125.132 181.771 109.185 186 93.0051 186ZM161.663 154.984C161.314 154.984 160.962 154.861 160.679 154.612C160.062 154.068 160.003 153.127 160.547 152.51C175.04 136.065 183.022 114.931 183.022 93.0007V92.732C183.022 91.9094 183.689 91.2428 184.511 91.2428C185.334 91.2428 186.001 91.9094 186.001 92.732V93.0007C186.001 115.657 177.754 137.491 162.782 154.479C162.487 154.813 162.076 154.984 161.663 154.984ZM1.48924 94.5562C0.666426 94.5562 0 93.9568 0 93.134V93.0004C0 70.3938 8.21393 48.5967 23.1278 31.6224C23.6717 31.0061 24.6112 30.944 25.2298 31.4863C25.8477 32.0297 25.9081 32.9706 25.3659 33.5885C10.9289 50.0185 2.97849 71.1181 2.97849 93.0002C2.97872 93.8233 2.31206 94.5562 1.48924 94.5562ZM160.525 32.7267C160.123 32.7267 159.72 32.564 159.427 32.2433C158.524 31.2566 157.6 30.2905 156.655 29.3451C139.652 12.3425 117.045 2.97849 92.9997 2.97849C92.9988 2.97849 92.9965 2.97849 92.9955 2.97849C77.2856 2.97849 61.8127 7.09374 48.2435 14.8819C47.5316 15.2899 46.6198 15.0442 46.2102 14.3313C45.8012 13.6177 46.0472 12.7078 46.7608 12.2989C60.7791 4.25298 76.7677 0 92.9955 0C92.9971 0 92.9981 0 92.9997 0C117.841 0 141.196 9.67354 158.761 27.2396C159.737 28.2151 160.692 29.2134 161.623 30.2319C162.179 30.8388 162.137 31.7806 161.531 32.3357C161.245 32.5974 160.885 32.7267 160.525 32.7267Z" fill="#64D90B"/>
</svg>
